M48
INCH
T29C0.020
T28C0.142
T27C0.038
%
T29
X016596Y029022
X016596Y027978
X016596Y025622
X016596Y024578
X017500Y029543
X017500Y027457
X017500Y026143
X017500Y024057
X018404Y029022
X018404Y027978
X018404Y025622
X018404Y024578
X021796Y038422
X021796Y037378
X021796Y016322
X021796Y015278
X022700Y038943
X022700Y036857
X022700Y016843
X022700Y014757
X023604Y038422
X023604Y037378
X023604Y016322
X023604Y015278
X025196Y038422
X025196Y037378
X025196Y016322
X025196Y015278
X026100Y038943
X026100Y036857
X026100Y016843
X026100Y014757
X027004Y038422
X027004Y037378
X027004Y016322
X027004Y015278
X028596Y038422
X028596Y037378
X028596Y016322
X028596Y015278
X029500Y038943
X029500Y036857
X029500Y016843
X029500Y014757
X030404Y038422
X030404Y037378
X030404Y016322
X030404Y015278
X031996Y038422
X031996Y037378
X031996Y016322
X031996Y015278
X032900Y038943
X032900Y036857
X032900Y016843
X032900Y014757
X033804Y038422
X033804Y037378
X033804Y016322
X033804Y015278
X035396Y038422
X035396Y037378
X035396Y016322
X035396Y015278
X036300Y038943
X036300Y036857
X036300Y016843
X036300Y014757
X037204Y038422
X037204Y037378
X037204Y016322
X037204Y015278
X038796Y038422
X038796Y037378
X038796Y016322
X038796Y015278
X039700Y038943
X039700Y036857
X039700Y016843
X039700Y014757
X040604Y038422
X040604Y037378
X040604Y016322
X040604Y015278
X042196Y038422
X042196Y037378
X042196Y016322
X042196Y015278
X043100Y038943
X043100Y036857
X043100Y016843
X043100Y014757
X044004Y038422
X044004Y037378
X044004Y016322
X044004Y015278
X045596Y038422
X045596Y037378
X045596Y016322
X045596Y015278
X046500Y038943
X046500Y036857
X046500Y016843
X046500Y014757
X047404Y038422
X047404Y037378
X047404Y016322
X047404Y015278
T27
X019900Y027300
X019900Y026300
X023800Y030800
X023800Y029800
X025300Y031300
X025300Y029800
X025300Y023800
X025300Y022300
X026300Y031300
X026300Y029800
X026300Y023800
X026300Y022300
X027300Y031300
X027300Y029800
X027300Y023800
X027300Y022300
X027300Y020900
X027300Y019900
X027300Y018900
X028300Y031300
X028300Y029800
X028300Y023800
X028300Y022300
X029300Y031300
X029300Y029800
X029300Y023800
X029300Y022300
X030300Y031300
X030300Y029800
X030300Y023800
X030300Y022300
X031300Y034800
X031300Y033800
X031300Y032800
X031300Y031300
X031300Y029800
X031300Y023800
X031300Y022300
X032300Y031300
X032300Y029800
X032300Y023800
X032300Y022300
X033300Y031300
X033300Y029800
X033300Y023800
X033300Y022300
X034300Y034800
X034300Y033800
X034300Y032800
X034300Y031300
X034300Y029800
X034300Y023800
X034300Y022300
X034300Y020900
X034300Y019900
X034300Y018900
X035300Y031300
X035300Y029800
X035300Y023800
X035300Y022300
X036300Y031300
X036300Y029800
X036300Y023800
X036300Y022300
X037300Y034800
X037300Y033800
X037300Y032800
X037300Y031300
X037300Y029800
X037300Y023800
X037300Y022300
X038300Y031300
X038300Y029800
X038300Y023800
X038300Y022300
X039300Y031300
X039300Y029800
X039300Y023800
X039300Y022300
X040300Y031300
X040300Y029800
X040300Y023800
X040300Y022300
X040300Y020900
X040300Y019900
X040300Y018900
X041300Y031300
X041300Y029800
X041300Y023800
X041300Y022300
X042300Y031300
X042300Y029800
X042300Y023800
X042300Y022300
X043300Y031300
X043300Y029800
X043300Y023800
X043300Y022300
X044300Y031300
X044300Y029800
X044300Y023800
X044300Y022300
X045300Y031300
X045300Y029800
X045300Y023800
X045300Y022300
X045300Y020900
X045300Y019900
X045300Y018900
X046300Y034800
X046300Y033800
X046300Y032800
X046300Y031300
X046300Y029800
X046300Y023800
X046300Y022300
X047300Y031300
X047300Y029800
X047300Y023800
X047300Y022300
X048300Y031300
X048300Y029800
X048300Y023800
X048300Y022300
T28
X017500Y028500
X017500Y025100
X022700Y037900
X022700Y015800
X026100Y037900
X026100Y015800
X029500Y037900
X029500Y015800
X032900Y037900
X032900Y015800
X036300Y037900
X036300Y015800
X039700Y037900
X039700Y015800
X043100Y037900
X043100Y015800
X046500Y037900
X046500Y015800
M30
