G04 start of page 8 for group -3984 idx -3984 *
G04 Title: Lorcan, fab *
G04 Creator: pcb 4.2.2 *
G04 CreationDate: Fri Nov  6 00:57:51 2020 UTC *
G04 For: ericl *
G04 Format: Gerber/RS-274X *
G04 PCB-Dimensions (mil): 3420.00 2710.00 *
G04 PCB-Coordinate-Origin: lower left *
%MOIN*%
%FSLAX25Y25*%
%LNFAB*%
%ADD40C,0.0100*%
%ADD39C,0.0075*%
%ADD38C,0.0060*%
%ADD37C,0.0080*%
G54D37*X25800Y153200D02*X28200Y150800D01*
X25800D02*X28200Y153200D01*
X25800Y119200D02*X28200Y116800D01*
X25800D02*X28200Y119200D01*
X111800Y26200D02*X114200Y23800D01*
X111800D02*X114200Y26200D01*
X77800D02*X80200Y23800D01*
X77800D02*X80200Y26200D01*
X179800D02*X182200Y23800D01*
X179800D02*X182200Y26200D01*
X145800D02*X148200Y23800D01*
X145800D02*X148200Y26200D01*
X247800D02*X250200Y23800D01*
X247800D02*X250200Y26200D01*
X213800D02*X216200Y23800D01*
X213800D02*X216200Y26200D01*
X315800D02*X318200Y23800D01*
X315800D02*X318200Y26200D01*
X281800D02*X284200Y23800D01*
X281800D02*X284200Y26200D01*
X111800Y247200D02*X114200Y244800D01*
X111800D02*X114200Y247200D01*
X77800D02*X80200Y244800D01*
X77800D02*X80200Y247200D01*
X179800D02*X182200Y244800D01*
X179800D02*X182200Y247200D01*
X145800D02*X148200Y244800D01*
X145800D02*X148200Y247200D01*
X247800D02*X250200Y244800D01*
X247800D02*X250200Y247200D01*
X213800D02*X216200Y244800D01*
X213800D02*X216200Y247200D01*
X315800D02*X318200Y244800D01*
X315800D02*X318200Y247200D01*
X281800D02*X284200Y244800D01*
X281800D02*X284200Y247200D01*
X13800Y298450D02*X16200Y296050D01*
X13800D02*X16200Y298450D01*
G54D38*X135000Y299500D02*X136500Y296500D01*
X138000Y299500D01*
X136500Y296500D02*Y293500D01*
X139800Y296800D02*X142050D01*
X139800Y293500D02*X142800D01*
X139800Y299500D02*Y293500D01*
Y299500D02*X142800D01*
X147600D02*X148350Y298750D01*
X145350Y299500D02*X147600D01*
X144600Y298750D02*X145350Y299500D01*
X144600Y298750D02*Y297250D01*
X145350Y296500D01*
X147600D01*
X148350Y295750D01*
Y294250D01*
X147600Y293500D02*X148350Y294250D01*
X145350Y293500D02*X147600D01*
X144600Y294250D02*X145350Y293500D01*
X98000Y298300D02*X99200Y299500D01*
Y293500D01*
X98000D02*X100250D01*
X102050Y294250D02*X102800Y293500D01*
X102050Y295450D02*Y294250D01*
Y295450D02*X103100Y296500D01*
X104000D01*
X105050Y295450D01*
Y294250D01*
X104300Y293500D02*X105050Y294250D01*
X102800Y293500D02*X104300D01*
X102050Y297550D02*X103100Y296500D01*
X102050Y298750D02*Y297550D01*
Y298750D02*X102800Y299500D01*
X104300D01*
X105050Y298750D01*
Y297550D01*
X104000Y296500D02*X105050Y297550D01*
X45000Y294250D02*X45750Y293500D01*
X45000Y298750D02*Y294250D01*
Y298750D02*X45750Y299500D01*
X47250D01*
X48000Y298750D01*
Y294250D01*
X47250Y293500D02*X48000Y294250D01*
X45750Y293500D02*X47250D01*
X45000Y295000D02*X48000Y298000D01*
X49800Y293500D02*X50550D01*
X52350Y298300D02*X53550Y299500D01*
Y293500D01*
X52350D02*X54600D01*
X56400Y295750D02*X59400Y299500D01*
X56400Y295750D02*X60150D01*
X59400Y299500D02*Y293500D01*
X61950Y298750D02*X62700Y299500D01*
X64950D01*
X65700Y298750D01*
Y297250D01*
X61950Y293500D02*X65700Y297250D01*
X61950Y293500D02*X65700D01*
X105000Y166600D02*Y163400D01*
X103400Y165000D02*X106600D01*
X115000Y166600D02*Y163400D01*
X113400Y165000D02*X116600D01*
X125000Y166600D02*Y163400D01*
X123400Y165000D02*X126600D01*
X135000Y166600D02*Y163400D01*
X133400Y165000D02*X136600D01*
X145000Y166600D02*Y163400D01*
X143400Y165000D02*X146600D01*
X155000Y166600D02*Y163400D01*
X153400Y165000D02*X156600D01*
X165000Y166600D02*Y163400D01*
X163400Y165000D02*X166600D01*
X175000Y166600D02*Y163400D01*
X173400Y165000D02*X176600D01*
X185000Y166600D02*Y163400D01*
X183400Y165000D02*X186600D01*
X195000Y166600D02*Y163400D01*
X193400Y165000D02*X196600D01*
X205000Y166600D02*Y163400D01*
X203400Y165000D02*X206600D01*
X215000Y166600D02*Y163400D01*
X213400Y165000D02*X216600D01*
X225000Y166600D02*Y163400D01*
X223400Y165000D02*X226600D01*
X235000Y166600D02*Y163400D01*
X233400Y165000D02*X236600D01*
X245000Y166600D02*Y163400D01*
X243400Y165000D02*X246600D01*
X255000Y166600D02*Y163400D01*
X253400Y165000D02*X256600D01*
X265000Y166600D02*Y163400D01*
X263400Y165000D02*X266600D01*
X275000Y166600D02*Y163400D01*
X273400Y165000D02*X276600D01*
X285000Y166600D02*Y163400D01*
X283400Y165000D02*X286600D01*
X295000Y166600D02*Y163400D01*
X293400Y165000D02*X296600D01*
X305000Y166600D02*Y163400D01*
X303400Y165000D02*X306600D01*
X315000Y166600D02*Y163400D01*
X313400Y165000D02*X316600D01*
X325000Y166600D02*Y163400D01*
X323400Y165000D02*X326600D01*
X335000Y166600D02*Y163400D01*
X333400Y165000D02*X336600D01*
X105000Y106600D02*Y103400D01*
X103400Y105000D02*X106600D01*
X115000Y106600D02*Y103400D01*
X113400Y105000D02*X116600D01*
X125000Y106600D02*Y103400D01*
X123400Y105000D02*X126600D01*
X135000Y106600D02*Y103400D01*
X133400Y105000D02*X136600D01*
X145000Y106600D02*Y103400D01*
X143400Y105000D02*X146600D01*
X155000Y106600D02*Y103400D01*
X153400Y105000D02*X156600D01*
X165000Y106600D02*Y103400D01*
X163400Y105000D02*X166600D01*
X175000Y106600D02*Y103400D01*
X173400Y105000D02*X176600D01*
X185000Y106600D02*Y103400D01*
X183400Y105000D02*X186600D01*
X195000Y106600D02*Y103400D01*
X193400Y105000D02*X196600D01*
X205000Y106600D02*Y103400D01*
X203400Y105000D02*X206600D01*
X215000Y106600D02*Y103400D01*
X213400Y105000D02*X216600D01*
X225000Y106600D02*Y103400D01*
X223400Y105000D02*X226600D01*
X235000Y106600D02*Y103400D01*
X233400Y105000D02*X236600D01*
X245000Y106600D02*Y103400D01*
X243400Y105000D02*X246600D01*
X255000Y106600D02*Y103400D01*
X253400Y105000D02*X256600D01*
X265000Y106600D02*Y103400D01*
X263400Y105000D02*X266600D01*
X275000Y106600D02*Y103400D01*
X273400Y105000D02*X276600D01*
X285000Y106600D02*Y103400D01*
X283400Y105000D02*X286600D01*
X295000Y106600D02*Y103400D01*
X293400Y105000D02*X296600D01*
X305000Y106600D02*Y103400D01*
X303400Y105000D02*X306600D01*
X315000Y106600D02*Y103400D01*
X313400Y105000D02*X316600D01*
X325000Y106600D02*Y103400D01*
X323400Y105000D02*X326600D01*
X335000Y106600D02*Y103400D01*
X333400Y105000D02*X336600D01*
X195000Y216600D02*Y213400D01*
X193400Y215000D02*X196600D01*
X195000Y206600D02*Y203400D01*
X193400Y205000D02*X196600D01*
X195000Y196600D02*Y193400D01*
X193400Y195000D02*X196600D01*
X225000Y216600D02*Y213400D01*
X223400Y215000D02*X226600D01*
X225000Y206600D02*Y203400D01*
X223400Y205000D02*X226600D01*
X225000Y196600D02*Y193400D01*
X223400Y195000D02*X226600D01*
X255000Y57600D02*Y54400D01*
X253400Y56000D02*X256600D01*
X255000Y67600D02*Y64400D01*
X253400Y66000D02*X256600D01*
X255000Y77600D02*Y74400D01*
X253400Y76000D02*X256600D01*
X305000Y57600D02*Y54400D01*
X303400Y56000D02*X306600D01*
X305000Y67600D02*Y64400D01*
X303400Y66000D02*X306600D01*
X305000Y77600D02*Y74400D01*
X303400Y76000D02*X306600D01*
X195000Y57600D02*Y54400D01*
X193400Y56000D02*X196600D01*
X195000Y67600D02*Y64400D01*
X193400Y66000D02*X196600D01*
X195000Y77600D02*Y74400D01*
X193400Y76000D02*X196600D01*
X125000Y57600D02*Y54400D01*
X123400Y56000D02*X126600D01*
X125000Y67600D02*Y64400D01*
X123400Y66000D02*X126600D01*
X125000Y77600D02*Y74400D01*
X123400Y76000D02*X126600D01*
X165000Y216600D02*Y213400D01*
X163400Y215000D02*X166600D01*
X165000Y206600D02*Y203400D01*
X163400Y205000D02*X166600D01*
X165000Y196600D02*Y193400D01*
X163400Y195000D02*X166600D01*
X315000Y216600D02*Y213400D01*
X313400Y215000D02*X316600D01*
X315000Y206600D02*Y203400D01*
X313400Y205000D02*X316600D01*
X315000Y196600D02*Y193400D01*
X313400Y195000D02*X316600D01*
X51000Y131600D02*Y128400D01*
X49400Y130000D02*X52600D01*
X51000Y141600D02*Y138400D01*
X49400Y140000D02*X52600D01*
X105000Y181600D02*Y178400D01*
X103400Y180000D02*X106600D01*
X115000Y181600D02*Y178400D01*
X113400Y180000D02*X116600D01*
X125000Y181600D02*Y178400D01*
X123400Y180000D02*X126600D01*
X135000Y181600D02*Y178400D01*
X133400Y180000D02*X136600D01*
X145000Y181600D02*Y178400D01*
X143400Y180000D02*X146600D01*
X155000Y181600D02*Y178400D01*
X153400Y180000D02*X156600D01*
X165000Y181600D02*Y178400D01*
X163400Y180000D02*X166600D01*
X175000Y181600D02*Y178400D01*
X173400Y180000D02*X176600D01*
X185000Y181600D02*Y178400D01*
X183400Y180000D02*X186600D01*
X195000Y181600D02*Y178400D01*
X193400Y180000D02*X196600D01*
X205000Y181600D02*Y178400D01*
X203400Y180000D02*X206600D01*
X215000Y181600D02*Y178400D01*
X213400Y180000D02*X216600D01*
X225000Y181600D02*Y178400D01*
X223400Y180000D02*X226600D01*
X235000Y181600D02*Y178400D01*
X233400Y180000D02*X236600D01*
X245000Y181600D02*Y178400D01*
X243400Y180000D02*X246600D01*
X255000Y181600D02*Y178400D01*
X253400Y180000D02*X256600D01*
X265000Y181600D02*Y178400D01*
X263400Y180000D02*X266600D01*
X275000Y181600D02*Y178400D01*
X273400Y180000D02*X276600D01*
X285000Y181600D02*Y178400D01*
X283400Y180000D02*X286600D01*
X295000Y181600D02*Y178400D01*
X293400Y180000D02*X296600D01*
X305000Y181600D02*Y178400D01*
X303400Y180000D02*X306600D01*
X315000Y181600D02*Y178400D01*
X313400Y180000D02*X316600D01*
X325000Y181600D02*Y178400D01*
X323400Y180000D02*X326600D01*
X335000Y181600D02*Y178400D01*
X333400Y180000D02*X336600D01*
X105000Y91600D02*Y88400D01*
X103400Y90000D02*X106600D01*
X115000Y91600D02*Y88400D01*
X113400Y90000D02*X116600D01*
X125000Y91600D02*Y88400D01*
X123400Y90000D02*X126600D01*
X135000Y91600D02*Y88400D01*
X133400Y90000D02*X136600D01*
X145000Y91600D02*Y88400D01*
X143400Y90000D02*X146600D01*
X155000Y91600D02*Y88400D01*
X153400Y90000D02*X156600D01*
X165000Y91600D02*Y88400D01*
X163400Y90000D02*X166600D01*
X175000Y91600D02*Y88400D01*
X173400Y90000D02*X176600D01*
X185000Y91600D02*Y88400D01*
X183400Y90000D02*X186600D01*
X195000Y91600D02*Y88400D01*
X193400Y90000D02*X196600D01*
X205000Y91600D02*Y88400D01*
X203400Y90000D02*X206600D01*
X215000Y91600D02*Y88400D01*
X213400Y90000D02*X216600D01*
X225000Y91600D02*Y88400D01*
X223400Y90000D02*X226600D01*
X235000Y91600D02*Y88400D01*
X233400Y90000D02*X236600D01*
X245000Y91600D02*Y88400D01*
X243400Y90000D02*X246600D01*
X255000Y91600D02*Y88400D01*
X253400Y90000D02*X256600D01*
X265000Y91600D02*Y88400D01*
X263400Y90000D02*X266600D01*
X275000Y91600D02*Y88400D01*
X273400Y90000D02*X276600D01*
X285000Y91600D02*Y88400D01*
X283400Y90000D02*X286600D01*
X295000Y91600D02*Y88400D01*
X293400Y90000D02*X296600D01*
X305000Y91600D02*Y88400D01*
X303400Y90000D02*X306600D01*
X315000Y91600D02*Y88400D01*
X313400Y90000D02*X316600D01*
X325000Y91600D02*Y88400D01*
X323400Y90000D02*X326600D01*
X335000Y91600D02*Y88400D01*
X333400Y90000D02*X336600D01*
X90000Y176600D02*Y173400D01*
X88400Y175000D02*X91600D01*
X90000Y166600D02*Y163400D01*
X88400Y165000D02*X91600D01*
X15000Y313850D02*Y310650D01*
X13400Y312250D02*X16600D01*
X135000Y314500D02*X136500Y311500D01*
X138000Y314500D01*
X136500Y311500D02*Y308500D01*
X139800Y311800D02*X142050D01*
X139800Y308500D02*X142800D01*
X139800Y314500D02*Y308500D01*
Y314500D02*X142800D01*
X147600D02*X148350Y313750D01*
X145350Y314500D02*X147600D01*
X144600Y313750D02*X145350Y314500D01*
X144600Y313750D02*Y312250D01*
X145350Y311500D01*
X147600D01*
X148350Y310750D01*
Y309250D01*
X147600Y308500D02*X148350Y309250D01*
X145350Y308500D02*X147600D01*
X144600Y309250D02*X145350Y308500D01*
X98000Y313300D02*X99200Y314500D01*
Y308500D01*
X98000D02*X100250D01*
X102050Y313750D02*X102800Y314500D01*
X105050D01*
X105800Y313750D01*
Y312250D01*
X102050Y308500D02*X105800Y312250D01*
X102050Y308500D02*X105800D01*
X107600Y310750D02*X110600Y314500D01*
X107600Y310750D02*X111350D01*
X110600Y314500D02*Y308500D01*
X45000Y309250D02*X45750Y308500D01*
X45000Y313750D02*Y309250D01*
Y313750D02*X45750Y314500D01*
X47250D01*
X48000Y313750D01*
Y309250D01*
X47250Y308500D02*X48000Y309250D01*
X45750Y308500D02*X47250D01*
X45000Y310000D02*X48000Y313000D01*
X49800Y308500D02*X50550D01*
X52350Y309250D02*X53100Y308500D01*
X52350Y313750D02*Y309250D01*
Y313750D02*X53100Y314500D01*
X54600D01*
X55350Y313750D01*
Y309250D01*
X54600Y308500D02*X55350Y309250D01*
X53100Y308500D02*X54600D01*
X52350Y310000D02*X55350Y313000D01*
X57150Y313750D02*X57900Y314500D01*
X59400D01*
X60150Y313750D01*
X59400Y308500D02*X60150Y309250D01*
X57900Y308500D02*X59400D01*
X57150Y309250D02*X57900Y308500D01*
Y311800D02*X59400D01*
X60150Y313750D02*Y312550D01*
Y311050D02*Y309250D01*
Y311050D02*X59400Y311800D01*
X60150Y312550D02*X59400Y311800D01*
X61950Y309250D02*X62700Y308500D01*
X61950Y310450D02*Y309250D01*
Y310450D02*X63000Y311500D01*
X63900D01*
X64950Y310450D01*
Y309250D01*
X64200Y308500D02*X64950Y309250D01*
X62700Y308500D02*X64200D01*
X61950Y312550D02*X63000Y311500D01*
X61950Y313750D02*Y312550D01*
Y313750D02*X62700Y314500D01*
X64200D01*
X64950Y313750D01*
Y312550D01*
X63900Y311500D02*X64950Y312550D01*
X27000Y141567D02*Y139967D01*
Y141567D02*X28387Y142367D01*
X27000Y141567D02*X25613Y142367D01*
X27000Y162433D02*Y160833D01*
Y162433D02*X28387Y163233D01*
X27000Y162433D02*X25613Y163233D01*
X17965Y146784D02*Y145184D01*
Y146784D02*X19352Y147584D01*
X17965Y146784D02*X16578Y147584D01*
X36035Y146784D02*Y145184D01*
Y146784D02*X37422Y147584D01*
X36035Y146784D02*X34648Y147584D01*
X17965Y157216D02*Y155616D01*
Y157216D02*X19352Y158016D01*
X17965Y157216D02*X16578Y158016D01*
X36035Y157216D02*Y155616D01*
Y157216D02*X37422Y158016D01*
X36035Y157216D02*X34648Y158016D01*
X27000Y107567D02*Y105967D01*
Y107567D02*X28387Y108367D01*
X27000Y107567D02*X25613Y108367D01*
X27000Y128433D02*Y126833D01*
Y128433D02*X28387Y129233D01*
X27000Y128433D02*X25613Y129233D01*
X17965Y112784D02*Y111184D01*
Y112784D02*X19352Y113584D01*
X17965Y112784D02*X16578Y113584D01*
X36035Y112784D02*Y111184D01*
Y112784D02*X37422Y113584D01*
X36035Y112784D02*X34648Y113584D01*
X17965Y123216D02*Y121616D01*
Y123216D02*X19352Y124016D01*
X17965Y123216D02*X16578Y124016D01*
X36035Y123216D02*Y121616D01*
Y123216D02*X37422Y124016D01*
X36035Y123216D02*X34648Y124016D01*
X113000Y14567D02*Y12967D01*
Y14567D02*X114387Y15367D01*
X113000Y14567D02*X111613Y15367D01*
X113000Y35433D02*Y33833D01*
Y35433D02*X114387Y36233D01*
X113000Y35433D02*X111613Y36233D01*
X103965Y19784D02*Y18184D01*
Y19784D02*X105352Y20584D01*
X103965Y19784D02*X102578Y20584D01*
X122035Y19784D02*Y18184D01*
Y19784D02*X123422Y20584D01*
X122035Y19784D02*X120648Y20584D01*
X103965Y30216D02*Y28616D01*
Y30216D02*X105352Y31016D01*
X103965Y30216D02*X102578Y31016D01*
X122035Y30216D02*Y28616D01*
Y30216D02*X123422Y31016D01*
X122035Y30216D02*X120648Y31016D01*
X79000Y14567D02*Y12967D01*
Y14567D02*X80387Y15367D01*
X79000Y14567D02*X77613Y15367D01*
X79000Y35433D02*Y33833D01*
Y35433D02*X80387Y36233D01*
X79000Y35433D02*X77613Y36233D01*
X69965Y19784D02*Y18184D01*
Y19784D02*X71352Y20584D01*
X69965Y19784D02*X68578Y20584D01*
X88035Y19784D02*Y18184D01*
Y19784D02*X89422Y20584D01*
X88035Y19784D02*X86648Y20584D01*
X69965Y30216D02*Y28616D01*
Y30216D02*X71352Y31016D01*
X69965Y30216D02*X68578Y31016D01*
X88035Y30216D02*Y28616D01*
Y30216D02*X89422Y31016D01*
X88035Y30216D02*X86648Y31016D01*
X181000Y14567D02*Y12967D01*
Y14567D02*X182387Y15367D01*
X181000Y14567D02*X179613Y15367D01*
X181000Y35433D02*Y33833D01*
Y35433D02*X182387Y36233D01*
X181000Y35433D02*X179613Y36233D01*
X171965Y19784D02*Y18184D01*
Y19784D02*X173352Y20584D01*
X171965Y19784D02*X170578Y20584D01*
X190035Y19784D02*Y18184D01*
Y19784D02*X191422Y20584D01*
X190035Y19784D02*X188648Y20584D01*
X171965Y30216D02*Y28616D01*
Y30216D02*X173352Y31016D01*
X171965Y30216D02*X170578Y31016D01*
X190035Y30216D02*Y28616D01*
Y30216D02*X191422Y31016D01*
X190035Y30216D02*X188648Y31016D01*
X147000Y14567D02*Y12967D01*
Y14567D02*X148387Y15367D01*
X147000Y14567D02*X145613Y15367D01*
X147000Y35433D02*Y33833D01*
Y35433D02*X148387Y36233D01*
X147000Y35433D02*X145613Y36233D01*
X137965Y19784D02*Y18184D01*
Y19784D02*X139352Y20584D01*
X137965Y19784D02*X136578Y20584D01*
X156035Y19784D02*Y18184D01*
Y19784D02*X157422Y20584D01*
X156035Y19784D02*X154648Y20584D01*
X137965Y30216D02*Y28616D01*
Y30216D02*X139352Y31016D01*
X137965Y30216D02*X136578Y31016D01*
X156035Y30216D02*Y28616D01*
Y30216D02*X157422Y31016D01*
X156035Y30216D02*X154648Y31016D01*
X249000Y14567D02*Y12967D01*
Y14567D02*X250387Y15367D01*
X249000Y14567D02*X247613Y15367D01*
X249000Y35433D02*Y33833D01*
Y35433D02*X250387Y36233D01*
X249000Y35433D02*X247613Y36233D01*
X239965Y19784D02*Y18184D01*
Y19784D02*X241352Y20584D01*
X239965Y19784D02*X238578Y20584D01*
X258035Y19784D02*Y18184D01*
Y19784D02*X259422Y20584D01*
X258035Y19784D02*X256648Y20584D01*
X239965Y30216D02*Y28616D01*
Y30216D02*X241352Y31016D01*
X239965Y30216D02*X238578Y31016D01*
X258035Y30216D02*Y28616D01*
Y30216D02*X259422Y31016D01*
X258035Y30216D02*X256648Y31016D01*
X215000Y14567D02*Y12967D01*
Y14567D02*X216387Y15367D01*
X215000Y14567D02*X213613Y15367D01*
X215000Y35433D02*Y33833D01*
Y35433D02*X216387Y36233D01*
X215000Y35433D02*X213613Y36233D01*
X205965Y19784D02*Y18184D01*
Y19784D02*X207352Y20584D01*
X205965Y19784D02*X204578Y20584D01*
X224035Y19784D02*Y18184D01*
Y19784D02*X225422Y20584D01*
X224035Y19784D02*X222648Y20584D01*
X205965Y30216D02*Y28616D01*
Y30216D02*X207352Y31016D01*
X205965Y30216D02*X204578Y31016D01*
X224035Y30216D02*Y28616D01*
Y30216D02*X225422Y31016D01*
X224035Y30216D02*X222648Y31016D01*
X317000Y14567D02*Y12967D01*
Y14567D02*X318387Y15367D01*
X317000Y14567D02*X315613Y15367D01*
X317000Y35433D02*Y33833D01*
Y35433D02*X318387Y36233D01*
X317000Y35433D02*X315613Y36233D01*
X307965Y19784D02*Y18184D01*
Y19784D02*X309352Y20584D01*
X307965Y19784D02*X306578Y20584D01*
X326035Y19784D02*Y18184D01*
Y19784D02*X327422Y20584D01*
X326035Y19784D02*X324648Y20584D01*
X307965Y30216D02*Y28616D01*
Y30216D02*X309352Y31016D01*
X307965Y30216D02*X306578Y31016D01*
X326035Y30216D02*Y28616D01*
Y30216D02*X327422Y31016D01*
X326035Y30216D02*X324648Y31016D01*
X283000Y14567D02*Y12967D01*
Y14567D02*X284387Y15367D01*
X283000Y14567D02*X281613Y15367D01*
X283000Y35433D02*Y33833D01*
Y35433D02*X284387Y36233D01*
X283000Y35433D02*X281613Y36233D01*
X273965Y19784D02*Y18184D01*
Y19784D02*X275352Y20584D01*
X273965Y19784D02*X272578Y20584D01*
X292035Y19784D02*Y18184D01*
Y19784D02*X293422Y20584D01*
X292035Y19784D02*X290648Y20584D01*
X273965Y30216D02*Y28616D01*
Y30216D02*X275352Y31016D01*
X273965Y30216D02*X272578Y31016D01*
X292035Y30216D02*Y28616D01*
Y30216D02*X293422Y31016D01*
X292035Y30216D02*X290648Y31016D01*
X113000Y235567D02*Y233967D01*
Y235567D02*X114387Y236367D01*
X113000Y235567D02*X111613Y236367D01*
X113000Y256433D02*Y254833D01*
Y256433D02*X114387Y257233D01*
X113000Y256433D02*X111613Y257233D01*
X103965Y240784D02*Y239184D01*
Y240784D02*X105352Y241584D01*
X103965Y240784D02*X102578Y241584D01*
X122035Y240784D02*Y239184D01*
Y240784D02*X123422Y241584D01*
X122035Y240784D02*X120648Y241584D01*
X103965Y251216D02*Y249616D01*
Y251216D02*X105352Y252016D01*
X103965Y251216D02*X102578Y252016D01*
X122035Y251216D02*Y249616D01*
Y251216D02*X123422Y252016D01*
X122035Y251216D02*X120648Y252016D01*
X79000Y235567D02*Y233967D01*
Y235567D02*X80387Y236367D01*
X79000Y235567D02*X77613Y236367D01*
X79000Y256433D02*Y254833D01*
Y256433D02*X80387Y257233D01*
X79000Y256433D02*X77613Y257233D01*
X69965Y240784D02*Y239184D01*
Y240784D02*X71352Y241584D01*
X69965Y240784D02*X68578Y241584D01*
X88035Y240784D02*Y239184D01*
Y240784D02*X89422Y241584D01*
X88035Y240784D02*X86648Y241584D01*
X69965Y251216D02*Y249616D01*
Y251216D02*X71352Y252016D01*
X69965Y251216D02*X68578Y252016D01*
X88035Y251216D02*Y249616D01*
Y251216D02*X89422Y252016D01*
X88035Y251216D02*X86648Y252016D01*
X181000Y235567D02*Y233967D01*
Y235567D02*X182387Y236367D01*
X181000Y235567D02*X179613Y236367D01*
X181000Y256433D02*Y254833D01*
Y256433D02*X182387Y257233D01*
X181000Y256433D02*X179613Y257233D01*
X171965Y240784D02*Y239184D01*
Y240784D02*X173352Y241584D01*
X171965Y240784D02*X170578Y241584D01*
X190035Y240784D02*Y239184D01*
Y240784D02*X191422Y241584D01*
X190035Y240784D02*X188648Y241584D01*
X171965Y251216D02*Y249616D01*
Y251216D02*X173352Y252016D01*
X171965Y251216D02*X170578Y252016D01*
X190035Y251216D02*Y249616D01*
Y251216D02*X191422Y252016D01*
X190035Y251216D02*X188648Y252016D01*
X147000Y235567D02*Y233967D01*
Y235567D02*X148387Y236367D01*
X147000Y235567D02*X145613Y236367D01*
X147000Y256433D02*Y254833D01*
Y256433D02*X148387Y257233D01*
X147000Y256433D02*X145613Y257233D01*
X137965Y240784D02*Y239184D01*
Y240784D02*X139352Y241584D01*
X137965Y240784D02*X136578Y241584D01*
X156035Y240784D02*Y239184D01*
Y240784D02*X157422Y241584D01*
X156035Y240784D02*X154648Y241584D01*
X137965Y251216D02*Y249616D01*
Y251216D02*X139352Y252016D01*
X137965Y251216D02*X136578Y252016D01*
X156035Y251216D02*Y249616D01*
Y251216D02*X157422Y252016D01*
X156035Y251216D02*X154648Y252016D01*
X249000Y235567D02*Y233967D01*
Y235567D02*X250387Y236367D01*
X249000Y235567D02*X247613Y236367D01*
X249000Y256433D02*Y254833D01*
Y256433D02*X250387Y257233D01*
X249000Y256433D02*X247613Y257233D01*
X239965Y240784D02*Y239184D01*
Y240784D02*X241352Y241584D01*
X239965Y240784D02*X238578Y241584D01*
X258035Y240784D02*Y239184D01*
Y240784D02*X259422Y241584D01*
X258035Y240784D02*X256648Y241584D01*
X239965Y251216D02*Y249616D01*
Y251216D02*X241352Y252016D01*
X239965Y251216D02*X238578Y252016D01*
X258035Y251216D02*Y249616D01*
Y251216D02*X259422Y252016D01*
X258035Y251216D02*X256648Y252016D01*
X215000Y235567D02*Y233967D01*
Y235567D02*X216387Y236367D01*
X215000Y235567D02*X213613Y236367D01*
X215000Y256433D02*Y254833D01*
Y256433D02*X216387Y257233D01*
X215000Y256433D02*X213613Y257233D01*
X205965Y240784D02*Y239184D01*
Y240784D02*X207352Y241584D01*
X205965Y240784D02*X204578Y241584D01*
X224035Y240784D02*Y239184D01*
Y240784D02*X225422Y241584D01*
X224035Y240784D02*X222648Y241584D01*
X205965Y251216D02*Y249616D01*
Y251216D02*X207352Y252016D01*
X205965Y251216D02*X204578Y252016D01*
X224035Y251216D02*Y249616D01*
Y251216D02*X225422Y252016D01*
X224035Y251216D02*X222648Y252016D01*
X317000Y235567D02*Y233967D01*
Y235567D02*X318387Y236367D01*
X317000Y235567D02*X315613Y236367D01*
X317000Y256433D02*Y254833D01*
Y256433D02*X318387Y257233D01*
X317000Y256433D02*X315613Y257233D01*
X307965Y240784D02*Y239184D01*
Y240784D02*X309352Y241584D01*
X307965Y240784D02*X306578Y241584D01*
X326035Y240784D02*Y239184D01*
Y240784D02*X327422Y241584D01*
X326035Y240784D02*X324648Y241584D01*
X307965Y251216D02*Y249616D01*
Y251216D02*X309352Y252016D01*
X307965Y251216D02*X306578Y252016D01*
X326035Y251216D02*Y249616D01*
Y251216D02*X327422Y252016D01*
X326035Y251216D02*X324648Y252016D01*
X283000Y235567D02*Y233967D01*
Y235567D02*X284387Y236367D01*
X283000Y235567D02*X281613Y236367D01*
X283000Y256433D02*Y254833D01*
Y256433D02*X284387Y257233D01*
X283000Y256433D02*X281613Y257233D01*
X273965Y240784D02*Y239184D01*
Y240784D02*X275352Y241584D01*
X273965Y240784D02*X272578Y241584D01*
X292035Y240784D02*Y239184D01*
Y240784D02*X293422Y241584D01*
X292035Y240784D02*X290648Y241584D01*
X273965Y251216D02*Y249616D01*
Y251216D02*X275352Y252016D01*
X273965Y251216D02*X272578Y252016D01*
X292035Y251216D02*Y249616D01*
Y251216D02*X293422Y252016D01*
X292035Y251216D02*X290648Y252016D01*
X15000Y327250D02*Y325650D01*
Y327250D02*X16387Y328050D01*
X15000Y327250D02*X13613Y328050D01*
X135000Y329500D02*X136500Y326500D01*
X138000Y329500D01*
X136500Y326500D02*Y323500D01*
X139800Y326800D02*X142050D01*
X139800Y323500D02*X142800D01*
X139800Y329500D02*Y323500D01*
Y329500D02*X142800D01*
X147600D02*X148350Y328750D01*
X145350Y329500D02*X147600D01*
X144600Y328750D02*X145350Y329500D01*
X144600Y328750D02*Y327250D01*
X145350Y326500D01*
X147600D01*
X148350Y325750D01*
Y324250D01*
X147600Y323500D02*X148350Y324250D01*
X145350Y323500D02*X147600D01*
X144600Y324250D02*X145350Y323500D01*
X98000Y328300D02*X99200Y329500D01*
Y323500D01*
X98000D02*X100250D01*
X102050Y324250D02*X102800Y323500D01*
X102050Y328750D02*Y324250D01*
Y328750D02*X102800Y329500D01*
X104300D01*
X105050Y328750D01*
Y324250D01*
X104300Y323500D02*X105050Y324250D01*
X102800Y323500D02*X104300D01*
X102050Y325000D02*X105050Y328000D01*
X106850Y324250D02*X107600Y323500D01*
X106850Y325450D02*Y324250D01*
Y325450D02*X107900Y326500D01*
X108800D01*
X109850Y325450D01*
Y324250D01*
X109100Y323500D02*X109850Y324250D01*
X107600Y323500D02*X109100D01*
X106850Y327550D02*X107900Y326500D01*
X106850Y328750D02*Y327550D01*
Y328750D02*X107600Y329500D01*
X109100D01*
X109850Y328750D01*
Y327550D01*
X108800Y326500D02*X109850Y327550D01*
X45000Y324250D02*X45750Y323500D01*
X45000Y328750D02*Y324250D01*
Y328750D02*X45750Y329500D01*
X47250D01*
X48000Y328750D01*
Y324250D01*
X47250Y323500D02*X48000Y324250D01*
X45750Y323500D02*X47250D01*
X45000Y325000D02*X48000Y328000D01*
X49800Y323500D02*X50550D01*
X52350Y324250D02*X53100Y323500D01*
X52350Y328750D02*Y324250D01*
Y328750D02*X53100Y329500D01*
X54600D01*
X55350Y328750D01*
Y324250D01*
X54600Y323500D02*X55350Y324250D01*
X53100Y323500D02*X54600D01*
X52350Y325000D02*X55350Y328000D01*
X57150Y328750D02*X57900Y329500D01*
X60150D01*
X60900Y328750D01*
Y327250D01*
X57150Y323500D02*X60900Y327250D01*
X57150Y323500D02*X60900D01*
X62700Y324250D02*X63450Y323500D01*
X62700Y328750D02*Y324250D01*
Y328750D02*X63450Y329500D01*
X64950D01*
X65700Y328750D01*
Y324250D01*
X64950Y323500D02*X65700Y324250D01*
X63450Y323500D02*X64950D01*
X62700Y325000D02*X65700Y328000D01*
X3000Y344500D02*X3750Y343750D01*
X750Y344500D02*X3000D01*
X0Y343750D02*X750Y344500D01*
X0Y343750D02*Y342250D01*
X750Y341500D01*
X3000D01*
X3750Y340750D01*
Y339250D01*
X3000Y338500D02*X3750Y339250D01*
X750Y338500D02*X3000D01*
X0Y339250D02*X750Y338500D01*
X5550Y341500D02*Y339250D01*
X6300Y338500D01*
X8550Y341500D02*Y337000D01*
X7800Y336250D02*X8550Y337000D01*
X6300Y336250D02*X7800D01*
X5550Y337000D02*X6300Y336250D01*
Y338500D02*X7800D01*
X8550Y339250D01*
X11100Y340750D02*Y338500D01*
Y340750D02*X11850Y341500D01*
X12600D01*
X13350Y340750D01*
Y338500D01*
Y340750D02*X14100Y341500D01*
X14850D01*
X15600Y340750D01*
Y338500D01*
X10350Y341500D02*X11100Y340750D01*
X17400Y344500D02*Y338500D01*
Y339250D02*X18150Y338500D01*
X19650D01*
X20400Y339250D01*
Y340750D02*Y339250D01*
X19650Y341500D02*X20400Y340750D01*
X18150Y341500D02*X19650D01*
X17400Y340750D02*X18150Y341500D01*
X22200Y340750D02*Y339250D01*
Y340750D02*X22950Y341500D01*
X24450D01*
X25200Y340750D01*
Y339250D01*
X24450Y338500D02*X25200Y339250D01*
X22950Y338500D02*X24450D01*
X22200Y339250D02*X22950Y338500D01*
X27000Y344500D02*Y339250D01*
X27750Y338500D01*
X0Y335250D02*X29250D01*
X41750Y344500D02*Y338500D01*
X43700Y344500D02*X44750Y343450D01*
Y339550D01*
X43700Y338500D02*X44750Y339550D01*
X41000Y338500D02*X43700D01*
X41000Y344500D02*X43700D01*
G54D39*X46550Y343000D02*Y342850D01*
G54D38*Y340750D02*Y338500D01*
X50300Y341500D02*X51050Y340750D01*
X48800Y341500D02*X50300D01*
X48050Y340750D02*X48800Y341500D01*
X48050Y340750D02*Y339250D01*
X48800Y338500D01*
X51050Y341500D02*Y339250D01*
X51800Y338500D01*
X48800D02*X50300D01*
X51050Y339250D01*
X54350Y340750D02*Y338500D01*
Y340750D02*X55100Y341500D01*
X55850D01*
X56600Y340750D01*
Y338500D01*
Y340750D02*X57350Y341500D01*
X58100D01*
X58850Y340750D01*
Y338500D01*
X53600Y341500D02*X54350Y340750D01*
X60650Y338500D02*X61400D01*
X65900Y339250D02*X66650Y338500D01*
X65900Y343750D02*X66650Y344500D01*
X65900Y343750D02*Y339250D01*
X68450Y344500D02*X69950D01*
X69200D02*Y338500D01*
X68450D02*X69950D01*
X72500Y340750D02*Y338500D01*
Y340750D02*X73250Y341500D01*
X74000D01*
X74750Y340750D01*
Y338500D01*
X71750Y341500D02*X72500Y340750D01*
X77300Y341500D02*X79550D01*
X76550Y340750D02*X77300Y341500D01*
X76550Y340750D02*Y339250D01*
X77300Y338500D01*
X79550D01*
X81350Y344500D02*Y338500D01*
Y340750D02*X82100Y341500D01*
X83600D01*
X84350Y340750D01*
Y338500D01*
X86150Y344500D02*X86900Y343750D01*
Y339250D01*
X86150Y338500D02*X86900Y339250D01*
X41000Y335250D02*X88700D01*
X96050Y338500D02*X98000D01*
X95000Y339550D02*X96050Y338500D01*
X95000Y343450D02*Y339550D01*
Y343450D02*X96050Y344500D01*
X98000D01*
X99800Y340750D02*Y339250D01*
Y340750D02*X100550Y341500D01*
X102050D01*
X102800Y340750D01*
Y339250D01*
X102050Y338500D02*X102800Y339250D01*
X100550Y338500D02*X102050D01*
X99800Y339250D02*X100550Y338500D01*
X104600Y341500D02*Y339250D01*
X105350Y338500D01*
X106850D01*
X107600Y339250D01*
Y341500D02*Y339250D01*
X110150Y340750D02*Y338500D01*
Y340750D02*X110900Y341500D01*
X111650D01*
X112400Y340750D01*
Y338500D01*
X109400Y341500D02*X110150Y340750D01*
X114950Y344500D02*Y339250D01*
X115700Y338500D01*
X114200Y342250D02*X115700D01*
X95000Y335250D02*X117200D01*
X130750Y344500D02*Y338500D01*
X130000Y344500D02*X133000D01*
X133750Y343750D01*
Y342250D01*
X133000Y341500D02*X133750Y342250D01*
X130750Y341500D02*X133000D01*
X135550Y344500D02*Y339250D01*
X136300Y338500D01*
X140050Y341500D02*X140800Y340750D01*
X138550Y341500D02*X140050D01*
X137800Y340750D02*X138550Y341500D01*
X137800Y340750D02*Y339250D01*
X138550Y338500D01*
X140800Y341500D02*Y339250D01*
X141550Y338500D01*
X138550D02*X140050D01*
X140800Y339250D01*
X144100Y344500D02*Y339250D01*
X144850Y338500D01*
X143350Y342250D02*X144850D01*
X147100Y338500D02*X149350D01*
X146350Y339250D02*X147100Y338500D01*
X146350Y340750D02*Y339250D01*
Y340750D02*X147100Y341500D01*
X148600D01*
X149350Y340750D01*
X146350Y340000D02*X149350D01*
Y340750D02*Y340000D01*
X154150Y344500D02*Y338500D01*
X153400D02*X154150Y339250D01*
X151900Y338500D02*X153400D01*
X151150Y339250D02*X151900Y338500D01*
X151150Y340750D02*Y339250D01*
Y340750D02*X151900Y341500D01*
X153400D01*
X154150Y340750D01*
X157450Y341500D02*Y340750D01*
Y339250D02*Y338500D01*
X155950Y343750D02*Y343000D01*
Y343750D02*X156700Y344500D01*
X158200D01*
X158950Y343750D01*
Y343000D01*
X157450Y341500D02*X158950Y343000D01*
X130000Y335250D02*X160750D01*
X0Y359500D02*X3000D01*
X1500D02*Y353500D01*
X4800Y359500D02*Y353500D01*
Y355750D02*X5550Y356500D01*
X7050D01*
X7800Y355750D01*
Y353500D01*
X10350D02*X12600D01*
X9600Y354250D02*X10350Y353500D01*
X9600Y355750D02*Y354250D01*
Y355750D02*X10350Y356500D01*
X11850D01*
X12600Y355750D01*
X9600Y355000D02*X12600D01*
Y355750D02*Y355000D01*
X15150Y355750D02*Y353500D01*
Y355750D02*X15900Y356500D01*
X17400D01*
X14400D02*X15150Y355750D01*
X19950Y353500D02*X22200D01*
X19200Y354250D02*X19950Y353500D01*
X19200Y355750D02*Y354250D01*
Y355750D02*X19950Y356500D01*
X21450D01*
X22200Y355750D01*
X19200Y355000D02*X22200D01*
Y355750D02*Y355000D01*
X28950Y356500D02*X29700Y355750D01*
X27450Y356500D02*X28950D01*
X26700Y355750D02*X27450Y356500D01*
X26700Y355750D02*Y354250D01*
X27450Y353500D01*
X29700Y356500D02*Y354250D01*
X30450Y353500D01*
X27450D02*X28950D01*
X29700Y354250D01*
X33000Y355750D02*Y353500D01*
Y355750D02*X33750Y356500D01*
X35250D01*
X32250D02*X33000Y355750D01*
X37800Y353500D02*X40050D01*
X37050Y354250D02*X37800Y353500D01*
X37050Y355750D02*Y354250D01*
Y355750D02*X37800Y356500D01*
X39300D01*
X40050Y355750D01*
X37050Y355000D02*X40050D01*
Y355750D02*Y355000D01*
X44550Y358750D02*X45300Y359500D01*
X46800D01*
X47550Y358750D01*
X46800Y353500D02*X47550Y354250D01*
X45300Y353500D02*X46800D01*
X44550Y354250D02*X45300Y353500D01*
Y356800D02*X46800D01*
X47550Y358750D02*Y357550D01*
Y356050D02*Y354250D01*
Y356050D02*X46800Y356800D01*
X47550Y357550D02*X46800Y356800D01*
X55050Y359500D02*Y353500D01*
X54300D02*X55050Y354250D01*
X52800Y353500D02*X54300D01*
X52050Y354250D02*X52800Y353500D01*
X52050Y355750D02*Y354250D01*
Y355750D02*X52800Y356500D01*
X54300D01*
X55050Y355750D01*
G54D39*X56850Y358000D02*Y357850D01*
G54D38*Y355750D02*Y353500D01*
X59100Y358750D02*Y353500D01*
Y358750D02*X59850Y359500D01*
X60600D01*
X58350Y356500D02*X59850D01*
X62850Y358750D02*Y353500D01*
Y358750D02*X63600Y359500D01*
X64350D01*
X62100Y356500D02*X63600D01*
X66600Y353500D02*X68850D01*
X65850Y354250D02*X66600Y353500D01*
X65850Y355750D02*Y354250D01*
Y355750D02*X66600Y356500D01*
X68100D01*
X68850Y355750D01*
X65850Y355000D02*X68850D01*
Y355750D02*Y355000D01*
X71400Y355750D02*Y353500D01*
Y355750D02*X72150Y356500D01*
X73650D01*
X70650D02*X71400Y355750D01*
X76200Y353500D02*X78450D01*
X75450Y354250D02*X76200Y353500D01*
X75450Y355750D02*Y354250D01*
Y355750D02*X76200Y356500D01*
X77700D01*
X78450Y355750D01*
X75450Y355000D02*X78450D01*
Y355750D02*Y355000D01*
X81000Y355750D02*Y353500D01*
Y355750D02*X81750Y356500D01*
X82500D01*
X83250Y355750D01*
Y353500D01*
X80250Y356500D02*X81000Y355750D01*
X85800Y359500D02*Y354250D01*
X86550Y353500D01*
X85050Y357250D02*X86550D01*
X93750Y359500D02*Y353500D01*
X93000D02*X93750Y354250D01*
X91500Y353500D02*X93000D01*
X90750Y354250D02*X91500Y353500D01*
X90750Y355750D02*Y354250D01*
Y355750D02*X91500Y356500D01*
X93000D01*
X93750Y355750D01*
X96300D02*Y353500D01*
Y355750D02*X97050Y356500D01*
X98550D01*
X95550D02*X96300Y355750D01*
G54D39*X100350Y358000D02*Y357850D01*
G54D38*Y355750D02*Y353500D01*
X101850Y359500D02*Y354250D01*
X102600Y353500D01*
X104100Y359500D02*Y354250D01*
X104850Y353500D01*
X109800D02*X112050D01*
X112800Y354250D01*
X112050Y355000D02*X112800Y354250D01*
X109800Y355000D02*X112050D01*
X109050Y355750D02*X109800Y355000D01*
X109050Y355750D02*X109800Y356500D01*
X112050D01*
X112800Y355750D01*
X109050Y354250D02*X109800Y353500D01*
G54D39*X114600Y358000D02*Y357850D01*
G54D38*Y355750D02*Y353500D01*
X116100Y356500D02*X119100D01*
X116100Y353500D02*X119100Y356500D01*
X116100Y353500D02*X119100D01*
X121650D02*X123900D01*
X120900Y354250D02*X121650Y353500D01*
X120900Y355750D02*Y354250D01*
Y355750D02*X121650Y356500D01*
X123150D01*
X123900Y355750D01*
X120900Y355000D02*X123900D01*
Y355750D02*Y355000D01*
X126450Y353500D02*X128700D01*
X129450Y354250D01*
X128700Y355000D02*X129450Y354250D01*
X126450Y355000D02*X128700D01*
X125700Y355750D02*X126450Y355000D01*
X125700Y355750D02*X126450Y356500D01*
X128700D01*
X129450Y355750D01*
X125700Y354250D02*X126450Y353500D01*
X133950Y356500D02*Y354250D01*
X134700Y353500D01*
X136200D01*
X136950Y354250D01*
Y356500D02*Y354250D01*
X139500Y353500D02*X141750D01*
X142500Y354250D01*
X141750Y355000D02*X142500Y354250D01*
X139500Y355000D02*X141750D01*
X138750Y355750D02*X139500Y355000D01*
X138750Y355750D02*X139500Y356500D01*
X141750D01*
X142500Y355750D01*
X138750Y354250D02*X139500Y353500D01*
X145050D02*X147300D01*
X144300Y354250D02*X145050Y353500D01*
X144300Y355750D02*Y354250D01*
Y355750D02*X145050Y356500D01*
X146550D01*
X147300Y355750D01*
X144300Y355000D02*X147300D01*
Y355750D02*Y355000D01*
X152100Y359500D02*Y353500D01*
X151350D02*X152100Y354250D01*
X149850Y353500D02*X151350D01*
X149100Y354250D02*X149850Y353500D01*
X149100Y355750D02*Y354250D01*
Y355750D02*X149850Y356500D01*
X151350D01*
X152100Y355750D01*
G54D39*X156600Y358000D02*Y357850D01*
G54D38*Y355750D02*Y353500D01*
X158850Y355750D02*Y353500D01*
Y355750D02*X159600Y356500D01*
X160350D01*
X161100Y355750D01*
Y353500D01*
X158100Y356500D02*X158850Y355750D01*
X166350Y359500D02*Y354250D01*
X167100Y353500D01*
X165600Y357250D02*X167100D01*
X168600Y359500D02*Y353500D01*
Y355750D02*X169350Y356500D01*
X170850D01*
X171600Y355750D01*
Y353500D01*
G54D39*X173400Y358000D02*Y357850D01*
G54D38*Y355750D02*Y353500D01*
X175650D02*X177900D01*
X178650Y354250D01*
X177900Y355000D02*X178650Y354250D01*
X175650Y355000D02*X177900D01*
X174900Y355750D02*X175650Y355000D01*
X174900Y355750D02*X175650Y356500D01*
X177900D01*
X178650Y355750D01*
X174900Y354250D02*X175650Y353500D01*
X183150Y359500D02*Y354250D01*
X183900Y353500D01*
X187650Y356500D02*X188400Y355750D01*
X186150Y356500D02*X187650D01*
X185400Y355750D02*X186150Y356500D01*
X185400Y355750D02*Y354250D01*
X186150Y353500D01*
X188400Y356500D02*Y354250D01*
X189150Y353500D01*
X186150D02*X187650D01*
X188400Y354250D01*
X190950Y356500D02*Y354250D01*
X191700Y353500D01*
X193950Y356500D02*Y352000D01*
X193200Y351250D02*X193950Y352000D01*
X191700Y351250D02*X193200D01*
X190950Y352000D02*X191700Y351250D01*
Y353500D02*X193200D01*
X193950Y354250D01*
X195750Y355750D02*Y354250D01*
Y355750D02*X196500Y356500D01*
X198000D01*
X198750Y355750D01*
Y354250D01*
X198000Y353500D02*X198750Y354250D01*
X196500Y353500D02*X198000D01*
X195750Y354250D02*X196500Y353500D01*
X200550Y356500D02*Y354250D01*
X201300Y353500D01*
X202800D01*
X203550Y354250D01*
Y356500D02*Y354250D01*
X206100Y359500D02*Y354250D01*
X206850Y353500D01*
X205350Y357250D02*X206850D01*
X208350Y352000D02*X209850Y353500D01*
X214350Y358750D02*X215100Y359500D01*
X217350D01*
X218100Y358750D01*
Y357250D01*
X214350Y353500D02*X218100Y357250D01*
X214350Y353500D02*X218100D01*
X219900Y359500D02*X222900D01*
X219900D02*Y356500D01*
X220650Y357250D01*
X222150D01*
X222900Y356500D01*
Y354250D01*
X222150Y353500D02*X222900Y354250D01*
X220650Y353500D02*X222150D01*
X219900Y354250D02*X220650Y353500D01*
X224700Y354250D02*X225450Y353500D01*
X224700Y358750D02*Y354250D01*
Y358750D02*X225450Y359500D01*
X226950D01*
X227700Y358750D01*
Y354250D01*
X226950Y353500D02*X227700Y354250D01*
X225450Y353500D02*X226950D01*
X224700Y355000D02*X227700Y358000D01*
X232200Y359500D02*Y353500D01*
Y355750D02*X232950Y356500D01*
X234450D01*
X235200Y355750D01*
Y353500D01*
X237000Y355750D02*Y354250D01*
Y355750D02*X237750Y356500D01*
X239250D01*
X240000Y355750D01*
Y354250D01*
X239250Y353500D02*X240000Y354250D01*
X237750Y353500D02*X239250D01*
X237000Y354250D02*X237750Y353500D01*
X241800Y359500D02*Y354250D01*
X242550Y353500D01*
X244800D02*X247050D01*
X244050Y354250D02*X244800Y353500D01*
X244050Y355750D02*Y354250D01*
Y355750D02*X244800Y356500D01*
X246300D01*
X247050Y355750D01*
X244050Y355000D02*X247050D01*
Y355750D02*Y355000D01*
X249600Y353500D02*X251850D01*
X252600Y354250D01*
X251850Y355000D02*X252600Y354250D01*
X249600Y355000D02*X251850D01*
X248850Y355750D02*X249600Y355000D01*
X248850Y355750D02*X249600Y356500D01*
X251850D01*
X252600Y355750D01*
X248850Y354250D02*X249600Y353500D01*
X257850Y359500D02*Y354250D01*
X258600Y353500D01*
X257100Y357250D02*X258600D01*
X260100Y355750D02*Y354250D01*
Y355750D02*X260850Y356500D01*
X262350D01*
X263100Y355750D01*
Y354250D01*
X262350Y353500D02*X263100Y354250D01*
X260850Y353500D02*X262350D01*
X260100Y354250D02*X260850Y353500D01*
X265650Y359500D02*Y354250D01*
X266400Y353500D01*
X264900Y357250D02*X266400D01*
X270150Y356500D02*X270900Y355750D01*
X268650Y356500D02*X270150D01*
X267900Y355750D02*X268650Y356500D01*
X267900Y355750D02*Y354250D01*
X268650Y353500D01*
X270900Y356500D02*Y354250D01*
X271650Y353500D01*
X268650D02*X270150D01*
X270900Y354250D01*
X273450Y359500D02*Y354250D01*
X274200Y353500D01*
G54D40*X0Y271000D02*X342000D01*
X0D02*Y0D01*
X342000Y271000D02*Y0D01*
X0D02*X342000D01*
G54D38*X200000Y284500D02*Y278500D01*
Y284500D02*X202250Y281500D01*
X204500Y284500D01*
Y278500D01*
X208550Y281500D02*X209300Y280750D01*
X207050Y281500D02*X208550D01*
X206300Y280750D02*X207050Y281500D01*
X206300Y280750D02*Y279250D01*
X207050Y278500D01*
X209300Y281500D02*Y279250D01*
X210050Y278500D01*
X207050D02*X208550D01*
X209300Y279250D01*
X211850Y281500D02*X214850Y278500D01*
X211850D02*X214850Y281500D01*
G54D39*X216650Y283000D02*Y282850D01*
G54D38*Y280750D02*Y278500D01*
X218900Y280750D02*Y278500D01*
Y280750D02*X219650Y281500D01*
X220400D01*
X221150Y280750D01*
Y278500D01*
Y280750D02*X221900Y281500D01*
X222650D01*
X223400Y280750D01*
Y278500D01*
X218150Y281500D02*X218900Y280750D01*
X225200Y281500D02*Y279250D01*
X225950Y278500D01*
X227450D01*
X228200Y279250D01*
Y281500D02*Y279250D01*
X230750Y280750D02*Y278500D01*
Y280750D02*X231500Y281500D01*
X232250D01*
X233000Y280750D01*
Y278500D01*
Y280750D02*X233750Y281500D01*
X234500D01*
X235250Y280750D01*
Y278500D01*
X230000Y281500D02*X230750Y280750D01*
X240500Y284500D02*Y278500D01*
X242450Y284500D02*X243500Y283450D01*
Y279550D01*
X242450Y278500D02*X243500Y279550D01*
X239750Y278500D02*X242450D01*
X239750Y284500D02*X242450D01*
G54D39*X245300Y283000D02*Y282850D01*
G54D38*Y280750D02*Y278500D01*
X247550Y280750D02*Y278500D01*
Y280750D02*X248300Y281500D01*
X249050D01*
X249800Y280750D01*
Y278500D01*
Y280750D02*X250550Y281500D01*
X251300D01*
X252050Y280750D01*
Y278500D01*
X246800Y281500D02*X247550Y280750D01*
X254600Y278500D02*X256850D01*
X253850Y279250D02*X254600Y278500D01*
X253850Y280750D02*Y279250D01*
Y280750D02*X254600Y281500D01*
X256100D01*
X256850Y280750D01*
X253850Y280000D02*X256850D01*
Y280750D02*Y280000D01*
X259400Y280750D02*Y278500D01*
Y280750D02*X260150Y281500D01*
X260900D01*
X261650Y280750D01*
Y278500D01*
X258650Y281500D02*X259400Y280750D01*
X264200Y278500D02*X266450D01*
X267200Y279250D01*
X266450Y280000D02*X267200Y279250D01*
X264200Y280000D02*X266450D01*
X263450Y280750D02*X264200Y280000D01*
X263450Y280750D02*X264200Y281500D01*
X266450D01*
X267200Y280750D01*
X263450Y279250D02*X264200Y278500D01*
G54D39*X269000Y283000D02*Y282850D01*
G54D38*Y280750D02*Y278500D01*
X270500Y280750D02*Y279250D01*
Y280750D02*X271250Y281500D01*
X272750D01*
X273500Y280750D01*
Y279250D01*
X272750Y278500D02*X273500Y279250D01*
X271250Y278500D02*X272750D01*
X270500Y279250D02*X271250Y278500D01*
X276050Y280750D02*Y278500D01*
Y280750D02*X276800Y281500D01*
X277550D01*
X278300Y280750D01*
Y278500D01*
X275300Y281500D02*X276050Y280750D01*
X280850Y278500D02*X283100D01*
X283850Y279250D01*
X283100Y280000D02*X283850Y279250D01*
X280850Y280000D02*X283100D01*
X280100Y280750D02*X280850Y280000D01*
X280100Y280750D02*X280850Y281500D01*
X283100D01*
X283850Y280750D01*
X280100Y279250D02*X280850Y278500D01*
X285650Y282250D02*X286400D01*
X285650Y280750D02*X286400D01*
X290900Y283750D02*X291650Y284500D01*
X293150D01*
X293900Y283750D01*
X293150Y278500D02*X293900Y279250D01*
X291650Y278500D02*X293150D01*
X290900Y279250D02*X291650Y278500D01*
Y281800D02*X293150D01*
X293900Y283750D02*Y282550D01*
Y281050D02*Y279250D01*
Y281050D02*X293150Y281800D01*
X293900Y282550D02*X293150Y281800D01*
X295700Y280750D02*X298700Y284500D01*
X295700Y280750D02*X299450D01*
X298700Y284500D02*Y278500D01*
X301250Y283750D02*X302000Y284500D01*
X304250D01*
X305000Y283750D01*
Y282250D01*
X301250Y278500D02*X305000Y282250D01*
X301250Y278500D02*X305000D01*
X306800Y279250D02*X307550Y278500D01*
X306800Y283750D02*Y279250D01*
Y283750D02*X307550Y284500D01*
X309050D01*
X309800Y283750D01*
Y279250D01*
X309050Y278500D02*X309800Y279250D01*
X307550Y278500D02*X309050D01*
X306800Y280000D02*X309800Y283000D01*
X311600Y278500D02*X312350D01*
X314150Y279250D02*X314900Y278500D01*
X314150Y283750D02*Y279250D01*
Y283750D02*X314900Y284500D01*
X316400D01*
X317150Y283750D01*
Y279250D01*
X316400Y278500D02*X317150Y279250D01*
X314900Y278500D02*X316400D01*
X314150Y280000D02*X317150Y283000D01*
X318950Y279250D02*X319700Y278500D01*
X318950Y283750D02*Y279250D01*
Y283750D02*X319700Y284500D01*
X321200D01*
X321950Y283750D01*
Y279250D01*
X321200Y278500D02*X321950Y279250D01*
X319700Y278500D02*X321200D01*
X318950Y280000D02*X321950Y283000D01*
X323750Y279250D02*X324500Y278500D01*
X323750Y283750D02*Y279250D01*
Y283750D02*X324500Y284500D01*
X326000D01*
X326750Y283750D01*
Y279250D01*
X326000Y278500D02*X326750Y279250D01*
X324500Y278500D02*X326000D01*
X323750Y280000D02*X326750Y283000D01*
X328550Y279250D02*X329300Y278500D01*
X328550Y283750D02*Y279250D01*
Y283750D02*X329300Y284500D01*
X330800D01*
X331550Y283750D01*
Y279250D01*
X330800Y278500D02*X331550Y279250D01*
X329300Y278500D02*X330800D01*
X328550Y280000D02*X331550Y283000D01*
X333350Y279250D02*X334100Y278500D01*
X333350Y283750D02*Y279250D01*
Y283750D02*X334100Y284500D01*
X335600D01*
X336350Y283750D01*
Y279250D01*
X335600Y278500D02*X336350Y279250D01*
X334100Y278500D02*X335600D01*
X333350Y280000D02*X336350Y283000D01*
X338150Y279250D02*X338900Y278500D01*
X338150Y283750D02*Y279250D01*
Y283750D02*X338900Y284500D01*
X340400D01*
X341150Y283750D01*
Y279250D01*
X340400Y278500D02*X341150Y279250D01*
X338900Y278500D02*X340400D01*
X338150Y280000D02*X341150Y283000D01*
X346400Y280750D02*Y278500D01*
Y280750D02*X347150Y281500D01*
X347900D01*
X348650Y280750D01*
Y278500D01*
Y280750D02*X349400Y281500D01*
X350150D01*
X350900Y280750D01*
Y278500D01*
X345650Y281500D02*X346400Y280750D01*
G54D39*X352700Y283000D02*Y282850D01*
G54D38*Y280750D02*Y278500D01*
X354200Y284500D02*Y279250D01*
X354950Y278500D01*
X357200D02*X359450D01*
X360200Y279250D01*
X359450Y280000D02*X360200Y279250D01*
X357200Y280000D02*X359450D01*
X356450Y280750D02*X357200Y280000D01*
X356450Y280750D02*X357200Y281500D01*
X359450D01*
X360200Y280750D01*
X356450Y279250D02*X357200Y278500D01*
X364700Y281500D02*Y279250D01*
X365450Y278500D01*
X366200D01*
X366950Y279250D01*
Y281500D02*Y279250D01*
X367700Y278500D01*
X368450D01*
X369200Y279250D01*
Y281500D02*Y279250D01*
G54D39*X371000Y283000D02*Y282850D01*
G54D38*Y280750D02*Y278500D01*
X375500Y284500D02*Y278500D01*
X374750D02*X375500Y279250D01*
X373250Y278500D02*X374750D01*
X372500Y279250D02*X373250Y278500D01*
X372500Y280750D02*Y279250D01*
Y280750D02*X373250Y281500D01*
X374750D01*
X375500Y280750D01*
X378050Y278500D02*X380300D01*
X377300Y279250D02*X378050Y278500D01*
X377300Y280750D02*Y279250D01*
Y280750D02*X378050Y281500D01*
X379550D01*
X380300Y280750D01*
X377300Y280000D02*X380300D01*
Y280750D02*Y280000D01*
X382100Y277000D02*X383600Y278500D01*
X388100Y283750D02*X388850Y284500D01*
X391100D01*
X391850Y283750D01*
Y282250D01*
X388100Y278500D02*X391850Y282250D01*
X388100Y278500D02*X391850D01*
X394400D02*X397400Y284500D01*
X393650D02*X397400D01*
X399200Y283300D02*X400400Y284500D01*
Y278500D01*
X399200D02*X401450D01*
X403250Y279250D02*X404000Y278500D01*
X403250Y283750D02*Y279250D01*
Y283750D02*X404000Y284500D01*
X405500D01*
X406250Y283750D01*
Y279250D01*
X405500Y278500D02*X406250Y279250D01*
X404000Y278500D02*X405500D01*
X403250Y280000D02*X406250Y283000D01*
X408050Y278500D02*X408800D01*
X410600Y279250D02*X411350Y278500D01*
X410600Y283750D02*Y279250D01*
Y283750D02*X411350Y284500D01*
X412850D01*
X413600Y283750D01*
Y279250D01*
X412850Y278500D02*X413600Y279250D01*
X411350Y278500D02*X412850D01*
X410600Y280000D02*X413600Y283000D01*
X415400Y279250D02*X416150Y278500D01*
X415400Y283750D02*Y279250D01*
Y283750D02*X416150Y284500D01*
X417650D01*
X418400Y283750D01*
Y279250D01*
X417650Y278500D02*X418400Y279250D01*
X416150Y278500D02*X417650D01*
X415400Y280000D02*X418400Y283000D01*
X420200Y279250D02*X420950Y278500D01*
X420200Y283750D02*Y279250D01*
Y283750D02*X420950Y284500D01*
X422450D01*
X423200Y283750D01*
Y279250D01*
X422450Y278500D02*X423200Y279250D01*
X420950Y278500D02*X422450D01*
X420200Y280000D02*X423200Y283000D01*
X425000Y279250D02*X425750Y278500D01*
X425000Y283750D02*Y279250D01*
Y283750D02*X425750Y284500D01*
X427250D01*
X428000Y283750D01*
Y279250D01*
X427250Y278500D02*X428000Y279250D01*
X425750Y278500D02*X427250D01*
X425000Y280000D02*X428000Y283000D01*
X429800Y279250D02*X430550Y278500D01*
X429800Y283750D02*Y279250D01*
Y283750D02*X430550Y284500D01*
X432050D01*
X432800Y283750D01*
Y279250D01*
X432050Y278500D02*X432800Y279250D01*
X430550Y278500D02*X432050D01*
X429800Y280000D02*X432800Y283000D01*
X434600Y279250D02*X435350Y278500D01*
X434600Y283750D02*Y279250D01*
Y283750D02*X435350Y284500D01*
X436850D01*
X437600Y283750D01*
Y279250D01*
X436850Y278500D02*X437600Y279250D01*
X435350Y278500D02*X436850D01*
X434600Y280000D02*X437600Y283000D01*
X442850Y280750D02*Y278500D01*
Y280750D02*X443600Y281500D01*
X444350D01*
X445100Y280750D01*
Y278500D01*
Y280750D02*X445850Y281500D01*
X446600D01*
X447350Y280750D01*
Y278500D01*
X442100Y281500D02*X442850Y280750D01*
G54D39*X449150Y283000D02*Y282850D01*
G54D38*Y280750D02*Y278500D01*
X450650Y284500D02*Y279250D01*
X451400Y278500D01*
X453650D02*X455900D01*
X456650Y279250D01*
X455900Y280000D02*X456650Y279250D01*
X453650Y280000D02*X455900D01*
X452900Y280750D02*X453650Y280000D01*
X452900Y280750D02*X453650Y281500D01*
X455900D01*
X456650Y280750D01*
X452900Y279250D02*X453650Y278500D01*
X461150Y284500D02*Y278500D01*
Y280750D02*X461900Y281500D01*
X463400D01*
X464150Y280750D01*
Y278500D01*
G54D39*X465950Y283000D02*Y282850D01*
G54D38*Y280750D02*Y278500D01*
X469700Y281500D02*X470450Y280750D01*
X468200Y281500D02*X469700D01*
X467450Y280750D02*X468200Y281500D01*
X467450Y280750D02*Y279250D01*
X468200Y278500D01*
X469700D01*
X470450Y279250D01*
X467450Y277000D02*X468200Y276250D01*
X469700D01*
X470450Y277000D01*
Y281500D02*Y277000D01*
X472250Y284500D02*Y278500D01*
Y280750D02*X473000Y281500D01*
X474500D01*
X475250Y280750D01*
Y278500D01*
X0Y-9500D02*X3000D01*
X3750Y-8750D01*
Y-6950D02*Y-8750D01*
X3000Y-6200D02*X3750Y-6950D01*
X750Y-6200D02*X3000D01*
X750Y-3500D02*Y-9500D01*
X0Y-3500D02*X3000D01*
X3750Y-4250D01*
Y-5450D01*
X3000Y-6200D02*X3750Y-5450D01*
X5550Y-7250D02*Y-8750D01*
Y-7250D02*X6300Y-6500D01*
X7800D01*
X8550Y-7250D01*
Y-8750D01*
X7800Y-9500D02*X8550Y-8750D01*
X6300Y-9500D02*X7800D01*
X5550Y-8750D02*X6300Y-9500D01*
X12600Y-6500D02*X13350Y-7250D01*
X11100Y-6500D02*X12600D01*
X10350Y-7250D02*X11100Y-6500D01*
X10350Y-7250D02*Y-8750D01*
X11100Y-9500D01*
X13350Y-6500D02*Y-8750D01*
X14100Y-9500D01*
X11100D02*X12600D01*
X13350Y-8750D01*
X16650Y-7250D02*Y-9500D01*
Y-7250D02*X17400Y-6500D01*
X18900D01*
X15900D02*X16650Y-7250D01*
X23700Y-3500D02*Y-9500D01*
X22950D02*X23700Y-8750D01*
X21450Y-9500D02*X22950D01*
X20700Y-8750D02*X21450Y-9500D01*
X20700Y-7250D02*Y-8750D01*
Y-7250D02*X21450Y-6500D01*
X22950D01*
X23700Y-7250D01*
X28200D02*Y-8750D01*
Y-7250D02*X28950Y-6500D01*
X30450D01*
X31200Y-7250D01*
Y-8750D01*
X30450Y-9500D02*X31200Y-8750D01*
X28950Y-9500D02*X30450D01*
X28200Y-8750D02*X28950Y-9500D01*
X33000Y-6500D02*Y-8750D01*
X33750Y-9500D01*
X35250D01*
X36000Y-8750D01*
Y-6500D02*Y-8750D01*
X38550Y-3500D02*Y-8750D01*
X39300Y-9500D01*
X37800Y-5750D02*X39300D01*
X40800Y-3500D02*Y-8750D01*
X41550Y-9500D01*
G54D39*X43050Y-5000D02*Y-5150D01*
G54D38*Y-7250D02*Y-9500D01*
X45300Y-7250D02*Y-9500D01*
Y-7250D02*X46050Y-6500D01*
X46800D01*
X47550Y-7250D01*
Y-9500D01*
X44550Y-6500D02*X45300Y-7250D01*
X50100Y-9500D02*X52350D01*
X49350Y-8750D02*X50100Y-9500D01*
X49350Y-7250D02*Y-8750D01*
Y-7250D02*X50100Y-6500D01*
X51600D01*
X52350Y-7250D01*
X49350Y-8000D02*X52350D01*
Y-7250D02*Y-8000D01*
G54D39*X56850Y-5000D02*Y-5150D01*
G54D38*Y-7250D02*Y-9500D01*
X59100D02*X61350D01*
X62100Y-8750D01*
X61350Y-8000D02*X62100Y-8750D01*
X59100Y-8000D02*X61350D01*
X58350Y-7250D02*X59100Y-8000D01*
X58350Y-7250D02*X59100Y-6500D01*
X61350D01*
X62100Y-7250D01*
X58350Y-8750D02*X59100Y-9500D01*
X67350Y-3500D02*Y-8750D01*
X68100Y-9500D01*
X66600Y-5750D02*X68100D01*
X69600Y-3500D02*Y-9500D01*
Y-7250D02*X70350Y-6500D01*
X71850D01*
X72600Y-7250D01*
Y-9500D01*
X75150D02*X77400D01*
X74400Y-8750D02*X75150Y-9500D01*
X74400Y-7250D02*Y-8750D01*
Y-7250D02*X75150Y-6500D01*
X76650D01*
X77400Y-7250D01*
X74400Y-8000D02*X77400D01*
Y-7250D02*Y-8000D01*
X82650Y-6500D02*X84900D01*
X81900Y-7250D02*X82650Y-6500D01*
X81900Y-7250D02*Y-8750D01*
X82650Y-9500D01*
X84900D01*
X87450D02*X89700D01*
X86700Y-8750D02*X87450Y-9500D01*
X86700Y-7250D02*Y-8750D01*
Y-7250D02*X87450Y-6500D01*
X88950D01*
X89700Y-7250D01*
X86700Y-8000D02*X89700D01*
Y-7250D02*Y-8000D01*
X92250Y-7250D02*Y-9500D01*
Y-7250D02*X93000Y-6500D01*
X93750D01*
X94500Y-7250D01*
Y-9500D01*
X91500Y-6500D02*X92250Y-7250D01*
X97050Y-3500D02*Y-8750D01*
X97800Y-9500D01*
X96300Y-5750D02*X97800D01*
X100050Y-9500D02*X102300D01*
X99300Y-8750D02*X100050Y-9500D01*
X99300Y-7250D02*Y-8750D01*
Y-7250D02*X100050Y-6500D01*
X101550D01*
X102300Y-7250D01*
X99300Y-8000D02*X102300D01*
Y-7250D02*Y-8000D01*
X104850Y-7250D02*Y-9500D01*
Y-7250D02*X105600Y-6500D01*
X107100D01*
X104100D02*X104850Y-7250D01*
X108900Y-3500D02*Y-8750D01*
X109650Y-9500D01*
G54D39*X111150Y-5000D02*Y-5150D01*
G54D38*Y-7250D02*Y-9500D01*
X113400Y-7250D02*Y-9500D01*
Y-7250D02*X114150Y-6500D01*
X114900D01*
X115650Y-7250D01*
Y-9500D01*
X112650Y-6500D02*X113400Y-7250D01*
X118200Y-9500D02*X120450D01*
X117450Y-8750D02*X118200Y-9500D01*
X117450Y-7250D02*Y-8750D01*
Y-7250D02*X118200Y-6500D01*
X119700D01*
X120450Y-7250D01*
X117450Y-8000D02*X120450D01*
Y-7250D02*Y-8000D01*
X124950Y-7250D02*Y-8750D01*
Y-7250D02*X125700Y-6500D01*
X127200D01*
X127950Y-7250D01*
Y-8750D01*
X127200Y-9500D02*X127950Y-8750D01*
X125700Y-9500D02*X127200D01*
X124950Y-8750D02*X125700Y-9500D01*
X130500Y-4250D02*Y-9500D01*
Y-4250D02*X131250Y-3500D01*
X132000D01*
X129750Y-6500D02*X131250D01*
X136950Y-3500D02*Y-8750D01*
X137700Y-9500D01*
X136200Y-5750D02*X137700D01*
X139200Y-3500D02*Y-9500D01*
Y-7250D02*X139950Y-6500D01*
X141450D01*
X142200Y-7250D01*
Y-9500D01*
G54D39*X144000Y-5000D02*Y-5150D01*
G54D38*Y-7250D02*Y-9500D01*
X146250D02*X148500D01*
X149250Y-8750D01*
X148500Y-8000D02*X149250Y-8750D01*
X146250Y-8000D02*X148500D01*
X145500Y-7250D02*X146250Y-8000D01*
X145500Y-7250D02*X146250Y-6500D01*
X148500D01*
X149250Y-7250D01*
X145500Y-8750D02*X146250Y-9500D01*
X153750Y-8750D02*X154500Y-9500D01*
X153750Y-7550D02*Y-8750D01*
Y-7550D02*X154800Y-6500D01*
X155700D01*
X156750Y-7550D01*
Y-8750D01*
X156000Y-9500D02*X156750Y-8750D01*
X154500Y-9500D02*X156000D01*
X153750Y-5450D02*X154800Y-6500D01*
X153750Y-4250D02*Y-5450D01*
Y-4250D02*X154500Y-3500D01*
X156000D01*
X156750Y-4250D01*
Y-5450D01*
X155700Y-6500D02*X156750Y-5450D01*
X158550Y-9500D02*X159300D01*
X161100Y-8750D02*X161850Y-9500D01*
X161100Y-4250D02*Y-8750D01*
Y-4250D02*X161850Y-3500D01*
X163350D01*
X164100Y-4250D01*
Y-8750D01*
X163350Y-9500D02*X164100Y-8750D01*
X161850Y-9500D02*X163350D01*
X161100Y-8000D02*X164100Y-5000D01*
X165900Y-8750D02*X166650Y-9500D01*
X165900Y-4250D02*Y-8750D01*
Y-4250D02*X166650Y-3500D01*
X168150D01*
X168900Y-4250D01*
Y-8750D01*
X168150Y-9500D02*X168900Y-8750D01*
X166650Y-9500D02*X168150D01*
X165900Y-8000D02*X168900Y-5000D01*
X170700Y-8750D02*X171450Y-9500D01*
X170700Y-4250D02*Y-8750D01*
Y-4250D02*X171450Y-3500D01*
X172950D01*
X173700Y-4250D01*
Y-8750D01*
X172950Y-9500D02*X173700Y-8750D01*
X171450Y-9500D02*X172950D01*
X170700Y-8000D02*X173700Y-5000D01*
X175500Y-8750D02*X176250Y-9500D01*
X175500Y-4250D02*Y-8750D01*
Y-4250D02*X176250Y-3500D01*
X177750D01*
X178500Y-4250D01*
Y-8750D01*
X177750Y-9500D02*X178500Y-8750D01*
X176250Y-9500D02*X177750D01*
X175500Y-8000D02*X178500Y-5000D01*
X180300Y-8750D02*X181050Y-9500D01*
X180300Y-4250D02*Y-8750D01*
Y-4250D02*X181050Y-3500D01*
X182550D01*
X183300Y-4250D01*
Y-8750D01*
X182550Y-9500D02*X183300Y-8750D01*
X181050Y-9500D02*X182550D01*
X180300Y-8000D02*X183300Y-5000D01*
X185100Y-8750D02*X185850Y-9500D01*
X185100Y-4250D02*Y-8750D01*
Y-4250D02*X185850Y-3500D01*
X187350D01*
X188100Y-4250D01*
Y-8750D01*
X187350Y-9500D02*X188100Y-8750D01*
X185850Y-9500D02*X187350D01*
X185100Y-8000D02*X188100Y-5000D01*
X193350Y-7250D02*Y-9500D01*
Y-7250D02*X194100Y-6500D01*
X194850D01*
X195600Y-7250D01*
Y-9500D01*
Y-7250D02*X196350Y-6500D01*
X197100D01*
X197850Y-7250D01*
Y-9500D01*
X192600Y-6500D02*X193350Y-7250D01*
G54D39*X199650Y-5000D02*Y-5150D01*
G54D38*Y-7250D02*Y-9500D01*
X201150Y-3500D02*Y-8750D01*
X201900Y-9500D01*
X206850Y-7250D02*Y-9500D01*
Y-7250D02*X207600Y-6500D01*
X209100D01*
X206100D02*X206850Y-7250D01*
X211650Y-9500D02*X213900D01*
X210900Y-8750D02*X211650Y-9500D01*
X210900Y-7250D02*Y-8750D01*
Y-7250D02*X211650Y-6500D01*
X213150D01*
X213900Y-7250D01*
X210900Y-8000D02*X213900D01*
Y-7250D02*Y-8000D01*
X216450Y-6500D02*X218700D01*
X215700Y-7250D02*X216450Y-6500D01*
X215700Y-7250D02*Y-8750D01*
X216450Y-9500D01*
X218700D01*
X221250Y-3500D02*Y-8750D01*
X222000Y-9500D01*
X220500Y-5750D02*X222000D01*
X225750Y-6500D02*X226500Y-7250D01*
X224250Y-6500D02*X225750D01*
X223500Y-7250D02*X224250Y-6500D01*
X223500Y-7250D02*Y-8750D01*
X224250Y-9500D01*
X226500Y-6500D02*Y-8750D01*
X227250Y-9500D01*
X224250D02*X225750D01*
X226500Y-8750D01*
X229800Y-7250D02*Y-9500D01*
Y-7250D02*X230550Y-6500D01*
X231300D01*
X232050Y-7250D01*
Y-9500D01*
X229050Y-6500D02*X229800Y-7250D01*
X236100Y-6500D02*X236850Y-7250D01*
X234600Y-6500D02*X236100D01*
X233850Y-7250D02*X234600Y-6500D01*
X233850Y-7250D02*Y-8750D01*
X234600Y-9500D01*
X236100D01*
X236850Y-8750D01*
X233850Y-11000D02*X234600Y-11750D01*
X236100D01*
X236850Y-11000D01*
Y-6500D02*Y-11000D01*
X238650Y-3500D02*Y-8750D01*
X239400Y-9500D01*
X241650D02*X243900D01*
X240900Y-8750D02*X241650Y-9500D01*
X240900Y-7250D02*Y-8750D01*
Y-7250D02*X241650Y-6500D01*
X243150D01*
X243900Y-7250D01*
X240900Y-8000D02*X243900D01*
Y-7250D02*Y-8000D01*
X248400Y-6500D02*X251400D01*
X255900Y-8750D02*X256650Y-9500D01*
X255900Y-4250D02*Y-8750D01*
Y-4250D02*X256650Y-3500D01*
X258150D01*
X258900Y-4250D01*
Y-8750D01*
X258150Y-9500D02*X258900Y-8750D01*
X256650Y-9500D02*X258150D01*
X255900Y-8000D02*X258900Y-5000D01*
X260700Y-11000D02*X262200Y-9500D01*
X264000Y-8750D02*X264750Y-9500D01*
X264000Y-4250D02*Y-8750D01*
Y-4250D02*X264750Y-3500D01*
X266250D01*
X267000Y-4250D01*
Y-8750D01*
X266250Y-9500D02*X267000Y-8750D01*
X264750Y-9500D02*X266250D01*
X264000Y-8000D02*X267000Y-5000D01*
X272250Y-3500D02*Y-8750D01*
X273000Y-9500D01*
X271500Y-5750D02*X273000D01*
X274500Y-7250D02*Y-8750D01*
Y-7250D02*X275250Y-6500D01*
X276750D01*
X277500Y-7250D01*
Y-8750D01*
X276750Y-9500D02*X277500Y-8750D01*
X275250Y-9500D02*X276750D01*
X274500Y-8750D02*X275250Y-9500D01*
X282000Y-4250D02*X282750Y-3500D01*
X284250D01*
X285000Y-4250D01*
X284250Y-9500D02*X285000Y-8750D01*
X282750Y-9500D02*X284250D01*
X282000Y-8750D02*X282750Y-9500D01*
Y-6200D02*X284250D01*
X285000Y-4250D02*Y-5450D01*
Y-6950D02*Y-8750D01*
Y-6950D02*X284250Y-6200D01*
X285000Y-5450D02*X284250Y-6200D01*
X286800Y-7250D02*X289800Y-3500D01*
X286800Y-7250D02*X290550D01*
X289800Y-3500D02*Y-9500D01*
X292350Y-4250D02*X293100Y-3500D01*
X295350D01*
X296100Y-4250D01*
Y-5750D01*
X292350Y-9500D02*X296100Y-5750D01*
X292350Y-9500D02*X296100D01*
X297900Y-8750D02*X298650Y-9500D01*
X297900Y-4250D02*Y-8750D01*
Y-4250D02*X298650Y-3500D01*
X300150D01*
X300900Y-4250D01*
Y-8750D01*
X300150Y-9500D02*X300900Y-8750D01*
X298650Y-9500D02*X300150D01*
X297900Y-8000D02*X300900Y-5000D01*
X302700Y-9500D02*X303450D01*
X305250Y-8750D02*X306000Y-9500D01*
X305250Y-4250D02*Y-8750D01*
Y-4250D02*X306000Y-3500D01*
X307500D01*
X308250Y-4250D01*
Y-8750D01*
X307500Y-9500D02*X308250Y-8750D01*
X306000Y-9500D02*X307500D01*
X305250Y-8000D02*X308250Y-5000D01*
X310050Y-8750D02*X310800Y-9500D01*
X310050Y-4250D02*Y-8750D01*
Y-4250D02*X310800Y-3500D01*
X312300D01*
X313050Y-4250D01*
Y-8750D01*
X312300Y-9500D02*X313050Y-8750D01*
X310800Y-9500D02*X312300D01*
X310050Y-8000D02*X313050Y-5000D01*
X314850Y-8750D02*X315600Y-9500D01*
X314850Y-4250D02*Y-8750D01*
Y-4250D02*X315600Y-3500D01*
X317100D01*
X317850Y-4250D01*
Y-8750D01*
X317100Y-9500D02*X317850Y-8750D01*
X315600Y-9500D02*X317100D01*
X314850Y-8000D02*X317850Y-5000D01*
X319650Y-8750D02*X320400Y-9500D01*
X319650Y-4250D02*Y-8750D01*
Y-4250D02*X320400Y-3500D01*
X321900D01*
X322650Y-4250D01*
Y-8750D01*
X321900Y-9500D02*X322650Y-8750D01*
X320400Y-9500D02*X321900D01*
X319650Y-8000D02*X322650Y-5000D01*
X324450Y-8750D02*X325200Y-9500D01*
X324450Y-4250D02*Y-8750D01*
Y-4250D02*X325200Y-3500D01*
X326700D01*
X327450Y-4250D01*
Y-8750D01*
X326700Y-9500D02*X327450Y-8750D01*
X325200Y-9500D02*X326700D01*
X324450Y-8000D02*X327450Y-5000D01*
X329250Y-8750D02*X330000Y-9500D01*
X329250Y-4250D02*Y-8750D01*
Y-4250D02*X330000Y-3500D01*
X331500D01*
X332250Y-4250D01*
Y-8750D01*
X331500Y-9500D02*X332250Y-8750D01*
X330000Y-9500D02*X331500D01*
X329250Y-8000D02*X332250Y-5000D01*
X334050Y-11000D02*X335550Y-9500D01*
X337350Y-4250D02*X338100Y-3500D01*
X340350D01*
X341100Y-4250D01*
Y-5750D01*
X337350Y-9500D02*X341100Y-5750D01*
X337350Y-9500D02*X341100D01*
X343650D02*X346650Y-3500D01*
X342900D02*X346650D01*
X348450Y-4700D02*X349650Y-3500D01*
Y-9500D01*
X348450D02*X350700D01*
X352500Y-8750D02*X353250Y-9500D01*
X352500Y-4250D02*Y-8750D01*
Y-4250D02*X353250Y-3500D01*
X354750D01*
X355500Y-4250D01*
Y-8750D01*
X354750Y-9500D02*X355500Y-8750D01*
X353250Y-9500D02*X354750D01*
X352500Y-8000D02*X355500Y-5000D01*
X357300Y-9500D02*X358050D01*
X359850Y-8750D02*X360600Y-9500D01*
X359850Y-4250D02*Y-8750D01*
Y-4250D02*X360600Y-3500D01*
X362100D01*
X362850Y-4250D01*
Y-8750D01*
X362100Y-9500D02*X362850Y-8750D01*
X360600Y-9500D02*X362100D01*
X359850Y-8000D02*X362850Y-5000D01*
X364650Y-8750D02*X365400Y-9500D01*
X364650Y-4250D02*Y-8750D01*
Y-4250D02*X365400Y-3500D01*
X366900D01*
X367650Y-4250D01*
Y-8750D01*
X366900Y-9500D02*X367650Y-8750D01*
X365400Y-9500D02*X366900D01*
X364650Y-8000D02*X367650Y-5000D01*
X369450Y-8750D02*X370200Y-9500D01*
X369450Y-4250D02*Y-8750D01*
Y-4250D02*X370200Y-3500D01*
X371700D01*
X372450Y-4250D01*
Y-8750D01*
X371700Y-9500D02*X372450Y-8750D01*
X370200Y-9500D02*X371700D01*
X369450Y-8000D02*X372450Y-5000D01*
X374250Y-8750D02*X375000Y-9500D01*
X374250Y-4250D02*Y-8750D01*
Y-4250D02*X375000Y-3500D01*
X376500D01*
X377250Y-4250D01*
Y-8750D01*
X376500Y-9500D02*X377250Y-8750D01*
X375000Y-9500D02*X376500D01*
X374250Y-8000D02*X377250Y-5000D01*
X379050Y-8750D02*X379800Y-9500D01*
X379050Y-4250D02*Y-8750D01*
Y-4250D02*X379800Y-3500D01*
X381300D01*
X382050Y-4250D01*
Y-8750D01*
X381300Y-9500D02*X382050Y-8750D01*
X379800Y-9500D02*X381300D01*
X379050Y-8000D02*X382050Y-5000D01*
X383850Y-8750D02*X384600Y-9500D01*
X383850Y-4250D02*Y-8750D01*
Y-4250D02*X384600Y-3500D01*
X386100D01*
X386850Y-4250D01*
Y-8750D01*
X386100Y-9500D02*X386850Y-8750D01*
X384600Y-9500D02*X386100D01*
X383850Y-8000D02*X386850Y-5000D01*
X392100Y-7250D02*Y-9500D01*
Y-7250D02*X392850Y-6500D01*
X393600D01*
X394350Y-7250D01*
Y-9500D01*
Y-7250D02*X395100Y-6500D01*
X395850D01*
X396600Y-7250D01*
Y-9500D01*
X391350Y-6500D02*X392100Y-7250D01*
G54D39*X398400Y-5000D02*Y-5150D01*
G54D38*Y-7250D02*Y-9500D01*
X399900Y-3500D02*Y-8750D01*
X400650Y-9500D01*
X402900D02*X405150D01*
X405900Y-8750D01*
X405150Y-8000D02*X405900Y-8750D01*
X402900Y-8000D02*X405150D01*
X402150Y-7250D02*X402900Y-8000D01*
X402150Y-7250D02*X402900Y-6500D01*
X405150D01*
X405900Y-7250D01*
X402150Y-8750D02*X402900Y-9500D01*
X200750Y299500D02*Y293500D01*
X202700Y299500D02*X203750Y298450D01*
Y294550D01*
X202700Y293500D02*X203750Y294550D01*
X200000Y293500D02*X202700D01*
X200000Y299500D02*X202700D01*
X207800Y296500D02*X208550Y295750D01*
X206300Y296500D02*X207800D01*
X205550Y295750D02*X206300Y296500D01*
X205550Y295750D02*Y294250D01*
X206300Y293500D01*
X208550Y296500D02*Y294250D01*
X209300Y293500D01*
X206300D02*X207800D01*
X208550Y294250D01*
X211850Y299500D02*Y294250D01*
X212600Y293500D01*
X211100Y297250D02*X212600D01*
X214850Y293500D02*X217100D01*
X214100Y294250D02*X214850Y293500D01*
X214100Y295750D02*Y294250D01*
Y295750D02*X214850Y296500D01*
X216350D01*
X217100Y295750D01*
X214100Y295000D02*X217100D01*
Y295750D02*Y295000D01*
X218900Y297250D02*X219650D01*
X218900Y295750D02*X219650D01*
X224150Y299500D02*Y293500D01*
Y299500D02*X227150D01*
X224150Y296800D02*X226400D01*
X229700Y295750D02*Y293500D01*
Y295750D02*X230450Y296500D01*
X231950D01*
X228950D02*X229700Y295750D01*
G54D39*X233750Y298000D02*Y297850D01*
G54D38*Y295750D02*Y293500D01*
X237950Y299500D02*Y293500D01*
Y299500D02*X241700Y293500D01*
Y299500D02*Y293500D01*
X243500Y295750D02*Y294250D01*
Y295750D02*X244250Y296500D01*
X245750D01*
X246500Y295750D01*
Y294250D01*
X245750Y293500D02*X246500Y294250D01*
X244250Y293500D02*X245750D01*
X243500Y294250D02*X244250Y293500D01*
X248300Y296500D02*X249800Y293500D01*
X251300Y296500D02*X249800Y293500D01*
X260750Y299500D02*X261500Y298750D01*
X259250Y299500D02*X260750D01*
X258500Y298750D02*X259250Y299500D01*
X258500Y298750D02*Y294250D01*
X259250Y293500D01*
X260750Y296800D02*X261500Y296050D01*
X258500Y296800D02*X260750D01*
X259250Y293500D02*X260750D01*
X261500Y294250D01*
Y296050D02*Y294250D01*
X266000D02*X266750Y293500D01*
X266000Y298750D02*Y294250D01*
Y298750D02*X266750Y299500D01*
X268250D01*
X269000Y298750D01*
Y294250D01*
X268250Y293500D02*X269000Y294250D01*
X266750Y293500D02*X268250D01*
X266000Y295000D02*X269000Y298000D01*
X270800Y294250D02*X271550Y293500D01*
X270800Y298750D02*Y294250D01*
Y298750D02*X271550Y299500D01*
X273050D01*
X273800Y298750D01*
Y294250D01*
X273050Y293500D02*X273800Y294250D01*
X271550Y293500D02*X273050D01*
X270800Y295000D02*X273800Y298000D01*
X275600Y297250D02*X276350D01*
X275600Y295750D02*X276350D01*
X278150Y299500D02*X281150D01*
X278150D02*Y296500D01*
X278900Y297250D01*
X280400D01*
X281150Y296500D01*
Y294250D01*
X280400Y293500D02*X281150Y294250D01*
X278900Y293500D02*X280400D01*
X278150Y294250D02*X278900Y293500D01*
X283700D02*X286700Y299500D01*
X282950D02*X286700D01*
X288500Y297250D02*X289250D01*
X288500Y295750D02*X289250D01*
X291050Y299500D02*X294050D01*
X291050D02*Y296500D01*
X291800Y297250D01*
X293300D01*
X294050Y296500D01*
Y294250D01*
X293300Y293500D02*X294050Y294250D01*
X291800Y293500D02*X293300D01*
X291050Y294250D02*X291800Y293500D01*
X295850Y298300D02*X297050Y299500D01*
Y293500D01*
X295850D02*X298100D01*
X302600Y298750D02*X303350Y299500D01*
X305600D01*
X306350Y298750D01*
Y297250D01*
X302600Y293500D02*X306350Y297250D01*
X302600Y293500D02*X306350D01*
X308150Y294250D02*X308900Y293500D01*
X308150Y298750D02*Y294250D01*
Y298750D02*X308900Y299500D01*
X310400D01*
X311150Y298750D01*
Y294250D01*
X310400Y293500D02*X311150Y294250D01*
X308900Y293500D02*X310400D01*
X308150Y295000D02*X311150Y298000D01*
X312950Y298750D02*X313700Y299500D01*
X315950D01*
X316700Y298750D01*
Y297250D01*
X312950Y293500D02*X316700Y297250D01*
X312950Y293500D02*X316700D01*
X318500Y294250D02*X319250Y293500D01*
X318500Y298750D02*Y294250D01*
Y298750D02*X319250Y299500D01*
X320750D01*
X321500Y298750D01*
Y294250D01*
X320750Y293500D02*X321500Y294250D01*
X319250Y293500D02*X320750D01*
X318500Y295000D02*X321500Y298000D01*
X326000Y299500D02*Y294250D01*
X326750Y293500D01*
X328250D01*
X329000Y294250D01*
Y299500D02*Y294250D01*
X330800Y299500D02*X333800D01*
X332300D02*Y293500D01*
X336650D02*X338600D01*
X335600Y294550D02*X336650Y293500D01*
X335600Y298450D02*Y294550D01*
Y298450D02*X336650Y299500D01*
X338600D01*
X200000Y313000D02*Y308500D01*
Y313000D02*X201050Y314500D01*
X202700D01*
X203750Y313000D01*
Y308500D01*
X200000Y311500D02*X203750D01*
X205550D02*Y309250D01*
X206300Y308500D01*
X207800D01*
X208550Y309250D01*
Y311500D02*Y309250D01*
X211100Y314500D02*Y309250D01*
X211850Y308500D01*
X210350Y312250D02*X211850D01*
X213350Y314500D02*Y308500D01*
Y310750D02*X214100Y311500D01*
X215600D01*
X216350Y310750D01*
Y308500D01*
X218150Y310750D02*Y309250D01*
Y310750D02*X218900Y311500D01*
X220400D01*
X221150Y310750D01*
Y309250D01*
X220400Y308500D02*X221150Y309250D01*
X218900Y308500D02*X220400D01*
X218150Y309250D02*X218900Y308500D01*
X223700Y310750D02*Y308500D01*
Y310750D02*X224450Y311500D01*
X225950D01*
X222950D02*X223700Y310750D01*
X227750Y312250D02*X228500D01*
X227750Y310750D02*X228500D01*
X233000Y311800D02*X235250D01*
X233000Y308500D02*X236000D01*
X233000Y314500D02*Y308500D01*
Y314500D02*X236000D01*
X238550Y310750D02*Y308500D01*
Y310750D02*X239300Y311500D01*
X240800D01*
X237800D02*X238550Y310750D01*
G54D39*X242600Y313000D02*Y312850D01*
G54D38*Y310750D02*Y308500D01*
X244850Y311500D02*X247100D01*
X244100Y310750D02*X244850Y311500D01*
X244100Y310750D02*Y309250D01*
X244850Y308500D01*
X247100D01*
X251600Y314500D02*Y308500D01*
X254600D01*
X258650Y311500D02*X259400Y310750D01*
X257150Y311500D02*X258650D01*
X256400Y310750D02*X257150Y311500D01*
X256400Y310750D02*Y309250D01*
X257150Y308500D01*
X259400Y311500D02*Y309250D01*
X260150Y308500D01*
X257150D02*X258650D01*
X259400Y309250D01*
X261950Y311500D02*Y309250D01*
X262700Y308500D01*
X264200D01*
X264950Y309250D01*
Y311500D02*Y309250D01*
X266750Y314500D02*Y308500D01*
Y310750D02*X269000Y308500D01*
X266750Y310750D02*X268250Y312250D01*
G54D39*X270800Y313000D02*Y312850D01*
G54D38*Y310750D02*Y308500D01*
X273050D02*X275300D01*
X272300Y309250D02*X273050Y308500D01*
X272300Y310750D02*Y309250D01*
Y310750D02*X273050Y311500D01*
X274550D01*
X275300Y310750D01*
X272300Y310000D02*X275300D01*
Y310750D02*Y310000D01*
X277850Y310750D02*Y308500D01*
Y310750D02*X278600Y311500D01*
X279350D01*
X280100Y310750D01*
Y308500D01*
X277100Y311500D02*X277850Y310750D01*
X200000Y329500D02*X203000D01*
X201500D02*Y323500D01*
G54D39*X204800Y328000D02*Y327850D01*
G54D38*Y325750D02*Y323500D01*
X207050Y329500D02*Y324250D01*
X207800Y323500D01*
X206300Y327250D02*X207800D01*
X209300Y329500D02*Y324250D01*
X210050Y323500D01*
X212300D02*X214550D01*
X211550Y324250D02*X212300Y323500D01*
X211550Y325750D02*Y324250D01*
Y325750D02*X212300Y326500D01*
X213800D01*
X214550Y325750D01*
X211550Y325000D02*X214550D01*
Y325750D02*Y325000D01*
X216350Y327250D02*X217100D01*
X216350Y325750D02*X217100D01*
X221600Y329500D02*Y323500D01*
X224600D01*
X226400Y325750D02*Y324250D01*
Y325750D02*X227150Y326500D01*
X228650D01*
X229400Y325750D01*
Y324250D01*
X228650Y323500D02*X229400Y324250D01*
X227150Y323500D02*X228650D01*
X226400Y324250D02*X227150Y323500D01*
X231950Y325750D02*Y323500D01*
Y325750D02*X232700Y326500D01*
X234200D01*
X231200D02*X231950Y325750D01*
X236750Y326500D02*X239000D01*
X236000Y325750D02*X236750Y326500D01*
X236000Y325750D02*Y324250D01*
X236750Y323500D01*
X239000D01*
X243050Y326500D02*X243800Y325750D01*
X241550Y326500D02*X243050D01*
X240800Y325750D02*X241550Y326500D01*
X240800Y325750D02*Y324250D01*
X241550Y323500D01*
X243800Y326500D02*Y324250D01*
X244550Y323500D01*
X241550D02*X243050D01*
X243800Y324250D01*
X247100Y325750D02*Y323500D01*
Y325750D02*X247850Y326500D01*
X248600D01*
X249350Y325750D01*
Y323500D01*
X246350Y326500D02*X247100Y325750D01*
X253850Y326500D02*X256850D01*
X261350Y329500D02*Y323500D01*
Y329500D02*X264350D01*
X261350Y326800D02*X263600D01*
X268400Y326500D02*X269150Y325750D01*
X266900Y326500D02*X268400D01*
X266150Y325750D02*X266900Y326500D01*
X266150Y325750D02*Y324250D01*
X266900Y323500D01*
X269150Y326500D02*Y324250D01*
X269900Y323500D01*
X266900D02*X268400D01*
X269150Y324250D01*
X271700Y329500D02*Y323500D01*
Y324250D02*X272450Y323500D01*
X273950D01*
X274700Y324250D01*
Y325750D02*Y324250D01*
X273950Y326500D02*X274700Y325750D01*
X272450Y326500D02*X273950D01*
X271700Y325750D02*X272450Y326500D01*
X277250Y325750D02*Y323500D01*
Y325750D02*X278000Y326500D01*
X279500D01*
X276500D02*X277250Y325750D01*
G54D39*X281300Y328000D02*Y327850D01*
G54D38*Y325750D02*Y323500D01*
X283550Y326500D02*X285800D01*
X282800Y325750D02*X283550Y326500D01*
X282800Y325750D02*Y324250D01*
X283550Y323500D01*
X285800D01*
X289850Y326500D02*X290600Y325750D01*
X288350Y326500D02*X289850D01*
X287600Y325750D02*X288350Y326500D01*
X287600Y325750D02*Y324250D01*
X288350Y323500D01*
X290600Y326500D02*Y324250D01*
X291350Y323500D01*
X288350D02*X289850D01*
X290600Y324250D01*
X293900Y329500D02*Y324250D01*
X294650Y323500D01*
X293150Y327250D02*X294650D01*
G54D39*X296150Y328000D02*Y327850D01*
G54D38*Y325750D02*Y323500D01*
X297650Y325750D02*Y324250D01*
Y325750D02*X298400Y326500D01*
X299900D01*
X300650Y325750D01*
Y324250D01*
X299900Y323500D02*X300650Y324250D01*
X298400Y323500D02*X299900D01*
X297650Y324250D02*X298400Y323500D01*
X303200Y325750D02*Y323500D01*
Y325750D02*X303950Y326500D01*
X304700D01*
X305450Y325750D01*
Y323500D01*
X302450Y326500D02*X303200Y325750D01*
X310700Y329500D02*Y323500D01*
X312650Y329500D02*X313700Y328450D01*
Y324550D01*
X312650Y323500D02*X313700Y324550D01*
X309950Y323500D02*X312650D01*
X309950Y329500D02*X312650D01*
X316250Y325750D02*Y323500D01*
Y325750D02*X317000Y326500D01*
X318500D01*
X315500D02*X316250Y325750D01*
X322550Y326500D02*X323300Y325750D01*
X321050Y326500D02*X322550D01*
X320300Y325750D02*X321050Y326500D01*
X320300Y325750D02*Y324250D01*
X321050Y323500D01*
X323300Y326500D02*Y324250D01*
X324050Y323500D01*
X321050D02*X322550D01*
X323300Y324250D01*
X325850Y326500D02*Y324250D01*
X326600Y323500D01*
X327350D01*
X328100Y324250D01*
Y326500D02*Y324250D01*
X328850Y323500D01*
X329600D01*
X330350Y324250D01*
Y326500D02*Y324250D01*
G54D39*X332150Y328000D02*Y327850D01*
G54D38*Y325750D02*Y323500D01*
X334400Y325750D02*Y323500D01*
Y325750D02*X335150Y326500D01*
X335900D01*
X336650Y325750D01*
Y323500D01*
X333650Y326500D02*X334400Y325750D01*
X340700Y326500D02*X341450Y325750D01*
X339200Y326500D02*X340700D01*
X338450Y325750D02*X339200Y326500D01*
X338450Y325750D02*Y324250D01*
X339200Y323500D01*
X340700D01*
X341450Y324250D01*
X338450Y322000D02*X339200Y321250D01*
X340700D01*
X341450Y322000D01*
Y326500D02*Y322000D01*
M02*
