G04 start of page 2 for group 0 idx 0 *
G04 Title: Lorcan, top *
G04 Creator: pcb 4.2.2 *
G04 CreationDate: Fri Nov  6 01:19:40 2020 UTC *
G04 For: ericl *
G04 Format: Gerber/RS-274X *
G04 PCB-Dimensions (mil): 3420.00 2710.00 *
G04 PCB-Coordinate-Origin: lower left *
%MOIN*%
%FSLAX25Y25*%
%LNTOP*%
%ADD19C,0.0197*%
%ADD18C,0.1417*%
%ADD17C,0.0380*%
%ADD16C,0.0669*%
%ADD15C,0.2756*%
%ADD14C,0.0001*%
%ADD13C,0.0250*%
%ADD12C,0.0600*%
%ADD11C,0.0100*%
G54D11*X0Y271000D02*Y0D01*
Y271000D02*X342000D01*
X0Y0D02*X342000D01*
Y271000D02*Y0D01*
X255000Y105000D02*Y76000D01*
G54D12*X215000Y25000D02*Y5000D01*
G54D11*Y105000D02*Y90000D01*
X225000Y105000D02*Y90000D01*
X235000Y105000D02*Y90000D01*
X245000Y105000D02*Y90000D01*
X265000Y105000D02*Y76000D01*
X255000Y66000D01*
G54D12*X249000Y45000D02*Y25000D01*
G54D11*X305000Y105000D02*Y76000D01*
X295000D02*X305000Y66000D01*
X295000Y105000D02*Y76000D01*
G54D12*X283000Y25000D02*Y5000D01*
G54D11*X285000Y105000D02*Y90000D01*
X275000Y105000D02*Y90000D01*
X215000Y165000D02*Y195000D01*
X225000Y205000D01*
Y165000D02*Y195000D01*
X205000Y165000D02*Y195000D01*
X195000Y205000D01*
Y165000D02*Y195000D01*
X165000Y165000D02*Y195000D01*
X175000Y165000D02*Y180000D01*
X185000Y165000D02*Y180000D01*
X155000Y165000D02*Y195000D01*
X325000Y165000D02*Y195000D01*
X315000Y165000D02*Y195000D01*
X335000Y165000D02*Y180000D01*
X325000Y195000D02*X315000Y205000D01*
G54D12*X317000Y246000D02*Y226000D01*
X283000Y246000D02*Y266000D01*
G54D11*X235000Y165000D02*Y180000D01*
X245000Y165000D02*Y180000D01*
X255000Y165000D02*Y180000D01*
X265000Y165000D02*Y180000D01*
X275000Y165000D02*Y180000D01*
X285000Y165000D02*Y180000D01*
X295000Y165000D02*Y180000D01*
X305000Y165000D02*Y180000D01*
X115000Y105000D02*Y76000D01*
X125000Y66000D01*
G54D13*Y56000D02*X80000Y101000D01*
Y105000D02*X105000D01*
G54D12*X113000Y45000D02*Y25000D01*
G54D13*X105000Y105000D02*Y90000D01*
G54D12*X147000Y25000D02*Y5000D01*
G54D11*X125000Y105000D02*Y76000D01*
X135000Y105000D02*Y90000D01*
X145000Y105000D02*Y90000D01*
G54D12*X317000Y45000D02*Y25000D01*
Y45000D02*X100000D01*
X283000Y5000D02*X25000D01*
X5500Y24500D01*
G54D13*X125000Y56000D02*X305000D01*
G54D11*X185000Y105000D02*Y76000D01*
X195000Y66000D01*
Y76000D02*Y105000D01*
X155000D02*Y90000D01*
X165000Y105000D02*Y90000D01*
X175000Y105000D02*Y90000D01*
G54D12*X181000Y45000D02*Y25000D01*
G54D11*X205000Y105000D02*Y90000D01*
X315000Y105000D02*Y90000D01*
X325000Y105000D02*Y90000D01*
X335000Y105000D02*Y90000D01*
G54D12*X249000Y246000D02*Y226000D01*
X215000Y246000D02*Y266000D01*
G54D11*X155000Y195000D02*X165000Y205000D01*
G54D12*X181000Y246000D02*Y226000D01*
X317000D02*X95000D01*
G54D13*X108000Y215000D02*X315000D01*
G54D12*X68000Y266000D02*X283000D01*
G54D11*X115000Y165000D02*Y180000D01*
X125000Y165000D02*Y180000D01*
X135000Y165000D02*Y180000D01*
X145000Y165000D02*Y180000D01*
G54D12*X79000Y25000D02*Y5000D01*
X69000Y200000D02*Y122000D01*
G54D13*X80000Y170000D02*Y101000D01*
G54D12*X27000Y118000D02*X100000Y45000D01*
G54D13*X27000Y118000D02*X39000D01*
X51000Y130000D01*
G54D12*X69000Y122000D02*X46000Y99000D01*
G54D13*X85000Y175000D02*X80000Y170000D01*
G54D12*X113000Y246000D02*Y226000D01*
X95000D02*X69000Y200000D01*
X147000Y246000D02*Y266000D01*
X79000Y246000D02*Y266000D01*
X27000Y225000D02*X68000Y266000D01*
X5500Y24500D02*Y130500D01*
X27000Y152000D01*
G54D13*X39000D01*
X51000Y140000D01*
G54D12*X27000Y152000D02*Y225000D01*
G54D13*X105000Y165000D02*Y180000D01*
X90000Y165000D02*X105000D01*
X90000Y175000D02*Y197000D01*
X108000Y215000D01*
X90000Y175000D02*X85000D01*
G54D14*G36*
X102000Y108000D02*Y102000D01*
X108000D01*
Y108000D01*
X102000D01*
G37*
G54D12*X115000Y105000D03*
G54D14*G36*
X102000Y93000D02*Y87000D01*
X108000D01*
Y93000D01*
X102000D01*
G37*
G54D12*X115000Y90000D03*
G54D15*X27000Y152000D03*
G54D16*Y141567D03*
X17965Y146784D03*
Y157216D03*
X27000Y162433D03*
X36035Y146784D03*
Y157216D03*
G54D15*X27000Y118000D03*
G54D16*Y107567D03*
X17965Y112784D03*
Y123216D03*
X27000Y128433D03*
X36035Y112784D03*
Y123216D03*
G54D14*G36*
X48000Y133000D02*Y127000D01*
X54000D01*
Y133000D01*
X48000D01*
G37*
G54D12*X51000Y140000D03*
G54D15*X113000Y25000D03*
G54D16*Y14567D03*
X103965Y19784D03*
Y30216D03*
X113000Y35433D03*
X122035Y19784D03*
Y30216D03*
G54D15*X79000Y25000D03*
G54D16*Y14567D03*
X69965Y19784D03*
Y30216D03*
X79000Y35433D03*
X88035Y19784D03*
Y30216D03*
G54D15*X181000Y25000D03*
G54D16*Y14567D03*
X171965Y19784D03*
Y30216D03*
X181000Y35433D03*
X190035Y19784D03*
Y30216D03*
G54D15*X147000Y25000D03*
G54D16*Y14567D03*
X137965Y19784D03*
Y30216D03*
X147000Y35433D03*
X156035Y19784D03*
Y30216D03*
G54D12*X125000Y105000D03*
X135000D03*
X145000D03*
X125000Y90000D03*
X135000D03*
X145000D03*
X155000D03*
X165000D03*
X175000D03*
X185000D03*
X155000Y105000D03*
X165000D03*
X175000D03*
X185000D03*
X195000D03*
X205000D03*
X215000D03*
X225000D03*
X235000D03*
X245000D03*
X255000D03*
X265000D03*
X275000D03*
X285000D03*
X295000D03*
X305000D03*
X315000D03*
X325000D03*
X335000D03*
G54D14*G36*
X252000Y59000D02*Y53000D01*
X258000D01*
Y59000D01*
X252000D01*
G37*
G36*
X302000D02*Y53000D01*
X308000D01*
Y59000D01*
X302000D01*
G37*
G36*
X192000D02*Y53000D01*
X198000D01*
Y59000D01*
X192000D01*
G37*
G36*
X122000D02*Y53000D01*
X128000D01*
Y59000D01*
X122000D01*
G37*
G54D12*X255000Y66000D03*
X305000D03*
X195000D03*
X125000D03*
X255000Y76000D03*
X305000D03*
X195000D03*
X125000D03*
X195000Y90000D03*
X205000D03*
X285000D03*
X295000D03*
X305000D03*
G54D15*X249000Y25000D03*
G54D16*Y14567D03*
X239965Y19784D03*
Y30216D03*
X249000Y35433D03*
X258035Y19784D03*
Y30216D03*
G54D15*X215000Y25000D03*
G54D16*Y14567D03*
X205965Y19784D03*
Y30216D03*
X215000Y35433D03*
X224035Y19784D03*
Y30216D03*
G54D15*X317000Y25000D03*
G54D16*Y14567D03*
X307965Y19784D03*
Y30216D03*
X317000Y35433D03*
X326035Y19784D03*
Y30216D03*
G54D15*X283000Y25000D03*
G54D16*Y14567D03*
X273965Y19784D03*
Y30216D03*
X283000Y35433D03*
X292035Y19784D03*
Y30216D03*
G54D12*X215000Y90000D03*
X225000D03*
X235000D03*
X245000D03*
X255000D03*
X265000D03*
X275000D03*
X315000D03*
X325000D03*
X335000D03*
X135000Y165000D03*
X145000D03*
X155000D03*
X165000D03*
G54D14*G36*
X102000Y168000D02*Y162000D01*
X108000D01*
Y168000D01*
X102000D01*
G37*
G54D12*X115000Y165000D03*
X125000D03*
G54D14*G36*
X102000Y183000D02*Y177000D01*
X108000D01*
Y183000D01*
X102000D01*
G37*
G54D12*X115000Y180000D03*
G54D14*G36*
X87000Y178000D02*Y172000D01*
X93000D01*
Y178000D01*
X87000D01*
G37*
G54D12*X90000Y165000D03*
G54D15*X113000Y246000D03*
G54D16*Y235567D03*
X103965Y240784D03*
Y251216D03*
X113000Y256433D03*
X122035Y240784D03*
Y251216D03*
G54D15*X79000Y246000D03*
G54D16*Y235567D03*
X69965Y240784D03*
Y251216D03*
X79000Y256433D03*
X88035Y240784D03*
Y251216D03*
G54D15*X181000Y246000D03*
G54D16*Y235567D03*
X171965Y240784D03*
Y251216D03*
X181000Y256433D03*
X190035Y240784D03*
Y251216D03*
G54D15*X147000Y246000D03*
G54D16*Y235567D03*
X137965Y240784D03*
Y251216D03*
X147000Y256433D03*
X156035Y240784D03*
Y251216D03*
G54D15*X249000Y246000D03*
G54D16*Y235567D03*
X239965Y240784D03*
Y251216D03*
X249000Y256433D03*
X258035Y240784D03*
Y251216D03*
G54D15*X215000Y246000D03*
G54D16*Y235567D03*
X205965Y240784D03*
Y251216D03*
X215000Y256433D03*
X224035Y240784D03*
Y251216D03*
G54D15*X317000Y246000D03*
G54D16*Y235567D03*
X307965Y240784D03*
Y251216D03*
X317000Y256433D03*
X326035Y240784D03*
Y251216D03*
G54D15*X283000Y246000D03*
G54D16*Y235567D03*
X273965Y240784D03*
Y251216D03*
X283000Y256433D03*
X292035Y240784D03*
Y251216D03*
G54D12*X205000Y180000D03*
X215000D03*
X225000D03*
X235000D03*
X245000D03*
X255000D03*
X265000D03*
X275000D03*
X285000D03*
X295000D03*
X305000D03*
X315000D03*
X325000D03*
X185000Y165000D03*
X195000D03*
X205000D03*
X215000D03*
X225000D03*
X175000D03*
X125000Y180000D03*
X135000D03*
X145000D03*
X155000D03*
X165000D03*
X175000D03*
X185000D03*
X195000D03*
G54D14*G36*
X192000Y218000D02*Y212000D01*
X198000D01*
Y218000D01*
X192000D01*
G37*
G36*
X222000D02*Y212000D01*
X228000D01*
Y218000D01*
X222000D01*
G37*
G36*
X162000D02*Y212000D01*
X168000D01*
Y218000D01*
X162000D01*
G37*
G36*
X312000D02*Y212000D01*
X318000D01*
Y218000D01*
X312000D01*
G37*
G54D12*X195000Y205000D03*
X225000D03*
X165000D03*
X315000D03*
X195000Y195000D03*
X225000D03*
X165000D03*
X315000D03*
X235000Y165000D03*
X245000D03*
X255000D03*
X265000D03*
X275000D03*
X285000D03*
X295000D03*
X305000D03*
X315000D03*
X325000D03*
X335000D03*
Y180000D03*
G54D17*G54D18*G54D19*G54D18*G54D19*G54D17*G54D18*G54D19*G54D18*G54D19*G54D18*G54D19*G54D18*G54D19*G54D17*G54D18*G54D19*G54D18*G54D19*G54D18*G54D19*G54D18*G54D19*G54D17*G54D18*G54D19*G54D18*G54D19*G54D18*G54D19*G54D18*G54D19*G54D18*G54D19*G54D18*G54D19*G54D18*G54D19*G54D18*G54D19*G54D17*M02*
