M48
INCH
T29C0.020
T28C0.142
T27C0.038
%
T29
X001796Y015722
X001796Y014678
X001796Y012322
X001796Y011278
X002700Y016243
X002700Y014157
X002700Y012843
X002700Y010757
X003604Y015722
X003604Y014678
X003604Y012322
X003604Y011278
X006996Y025122
X006996Y024078
X006996Y003022
X006996Y001978
X007900Y025643
X007900Y023557
X007900Y003543
X007900Y001457
X008804Y025122
X008804Y024078
X008804Y003022
X008804Y001978
X010396Y025122
X010396Y024078
X010396Y003022
X010396Y001978
X011300Y025643
X011300Y023557
X011300Y003543
X011300Y001457
X012204Y025122
X012204Y024078
X012204Y003022
X012204Y001978
X013796Y025122
X013796Y024078
X013796Y003022
X013796Y001978
X014700Y025643
X014700Y023557
X014700Y003543
X014700Y001457
X015604Y025122
X015604Y024078
X015604Y003022
X015604Y001978
X017196Y025122
X017196Y024078
X017196Y003022
X017196Y001978
X018100Y025643
X018100Y023557
X018100Y003543
X018100Y001457
X019004Y025122
X019004Y024078
X019004Y003022
X019004Y001978
X020596Y025122
X020596Y024078
X020596Y003022
X020596Y001978
X021500Y025643
X021500Y023557
X021500Y003543
X021500Y001457
X022404Y025122
X022404Y024078
X022404Y003022
X022404Y001978
X023996Y025122
X023996Y024078
X023996Y003022
X023996Y001978
X024900Y025643
X024900Y023557
X024900Y003543
X024900Y001457
X025804Y025122
X025804Y024078
X025804Y003022
X025804Y001978
X027396Y025122
X027396Y024078
X027396Y003022
X027396Y001978
X028300Y025643
X028300Y023557
X028300Y003543
X028300Y001457
X029204Y025122
X029204Y024078
X029204Y003022
X029204Y001978
X030796Y025122
X030796Y024078
X030796Y003022
X030796Y001978
X031700Y025643
X031700Y023557
X031700Y003543
X031700Y001457
X032604Y025122
X032604Y024078
X032604Y003022
X032604Y001978
T27
X005100Y014000
X005100Y013000
X009000Y017500
X009000Y016500
X010500Y018000
X010500Y016500
X010500Y010500
X010500Y009000
X011500Y018000
X011500Y016500
X011500Y010500
X011500Y009000
X012500Y018000
X012500Y016500
X012500Y010500
X012500Y009000
X012500Y007600
X012500Y006600
X012500Y005600
X013500Y018000
X013500Y016500
X013500Y010500
X013500Y009000
X014500Y018000
X014500Y016500
X014500Y010500
X014500Y009000
X015500Y018000
X015500Y016500
X015500Y010500
X015500Y009000
X016500Y021500
X016500Y020500
X016500Y019500
X016500Y018000
X016500Y016500
X016500Y010500
X016500Y009000
X017500Y018000
X017500Y016500
X017500Y010500
X017500Y009000
X018500Y018000
X018500Y016500
X018500Y010500
X018500Y009000
X019500Y021500
X019500Y020500
X019500Y019500
X019500Y018000
X019500Y016500
X019500Y010500
X019500Y009000
X019500Y007600
X019500Y006600
X019500Y005600
X020500Y018000
X020500Y016500
X020500Y010500
X020500Y009000
X021500Y018000
X021500Y016500
X021500Y010500
X021500Y009000
X022500Y021500
X022500Y020500
X022500Y019500
X022500Y018000
X022500Y016500
X022500Y010500
X022500Y009000
X023500Y018000
X023500Y016500
X023500Y010500
X023500Y009000
X024500Y018000
X024500Y016500
X024500Y010500
X024500Y009000
X025500Y018000
X025500Y016500
X025500Y010500
X025500Y009000
X025500Y007600
X025500Y006600
X025500Y005600
X026500Y018000
X026500Y016500
X026500Y010500
X026500Y009000
X027500Y018000
X027500Y016500
X027500Y010500
X027500Y009000
X028500Y018000
X028500Y016500
X028500Y010500
X028500Y009000
X029500Y018000
X029500Y016500
X029500Y010500
X029500Y009000
X030500Y018000
X030500Y016500
X030500Y010500
X030500Y009000
X030500Y007600
X030500Y006600
X030500Y005600
X031500Y021500
X031500Y020500
X031500Y019500
X031500Y018000
X031500Y016500
X031500Y010500
X031500Y009000
X032500Y018000
X032500Y016500
X032500Y010500
X032500Y009000
X033500Y018000
X033500Y016500
X033500Y010500
X033500Y009000
T28
X002700Y015200
X002700Y011800
X007900Y024600
X007900Y002500
X011300Y024600
X011300Y002500
X014700Y024600
X014700Y002500
X018100Y024600
X018100Y002500
X021500Y024600
X021500Y002500
X024900Y024600
X024900Y002500
X028300Y024600
X028300Y002500
X031700Y024600
X031700Y002500
M30
